<svg width="1440" height="1024" viewBox="0 0 1440 1024" fill="none" xmlns="http://www.w3.org/2000/svg">
<g clip-path="url(#clip0_20_141)">
<rect width="1440" height="1024" fill="#7A7A7A"/>
<g filter="url(#filter0_d_20_141)">
<circle cx="79" cy="831" r="150" fill="#D9D9D9" fill-opacity="0.3" shape-rendering="crispEdges"/>
</g>
<g filter="url(#filter1_d_20_141)">
<circle cx="1271" cy="999" r="75" fill="#D9D9D9" fill-opacity="0.3" shape-rendering="crispEdges"/>
</g>
<g filter="url(#filter2_d_20_141)">
<circle cx="1196" cy="261" r="350" fill="#D9D9D9" fill-opacity="0.3" shape-rendering="crispEdges"/>
</g>
<rect x="528" y="837" width="144" height="53" rx="4" fill="black"/>
<path d="M539.05 863.5C539.05 861.44 539.51 859.6 540.43 857.98C541.37 856.34 542.64 855.07 544.24 854.17C545.86 853.25 547.67 852.79 549.67 852.79C552.01 852.79 554.06 853.39 555.82 854.59C557.58 855.79 558.81 857.45 559.51 859.57H554.68C554.2 858.57 553.52 857.82 552.64 857.32C551.78 856.82 550.78 856.57 549.64 856.57C548.42 856.57 547.33 856.86 546.37 857.44C545.43 858 544.69 858.8 544.15 859.84C543.63 860.88 543.37 862.1 543.37 863.5C543.37 864.88 543.63 866.1 544.15 867.16C544.69 868.2 545.43 869.01 546.37 869.59C547.33 870.15 548.42 870.43 549.64 870.43C550.78 870.43 551.78 870.18 552.64 869.68C553.52 869.16 554.2 868.4 554.68 867.4H559.51C558.81 869.54 557.58 871.21 555.82 872.41C554.08 873.59 552.03 874.18 549.67 874.18C547.67 874.18 545.86 873.73 544.24 872.83C542.64 871.91 541.37 870.64 540.43 869.02C539.51 867.4 539.05 865.56 539.05 863.5ZM570.477 874.27C568.877 874.27 567.437 873.92 566.157 873.22C564.877 872.5 563.867 871.49 563.127 870.19C562.407 868.89 562.047 867.39 562.047 865.69C562.047 863.99 562.417 862.49 563.157 861.19C563.917 859.89 564.947 858.89 566.247 858.19C567.547 857.47 568.997 857.11 570.597 857.11C572.197 857.11 573.647 857.47 574.947 858.19C576.247 858.89 577.267 859.89 578.007 861.19C578.767 862.49 579.147 863.99 579.147 865.69C579.147 867.39 578.757 868.89 577.977 870.19C577.217 871.49 576.177 872.5 574.857 873.22C573.557 873.92 572.097 874.27 570.477 874.27ZM570.477 870.61C571.237 870.61 571.947 870.43 572.607 870.07C573.287 869.69 573.827 869.13 574.227 868.39C574.627 867.65 574.827 866.75 574.827 865.69C574.827 864.11 574.407 862.9 573.567 862.06C572.747 861.2 571.737 860.77 570.537 860.77C569.337 860.77 568.327 861.2 567.507 862.06C566.707 862.9 566.307 864.11 566.307 865.69C566.307 867.27 566.697 868.49 567.477 869.35C568.277 870.19 569.277 870.61 570.477 870.61ZM591.438 857.14C593.418 857.14 595.018 857.77 596.238 859.03C597.458 860.27 598.068 862.01 598.068 864.25V874H593.868V864.82C593.868 863.5 593.538 862.49 592.878 861.79C592.218 861.07 591.318 860.71 590.178 860.71C589.018 860.71 588.098 861.07 587.418 861.79C586.758 862.49 586.428 863.5 586.428 864.82V874H582.228V857.38H586.428V859.45C586.988 858.73 587.698 858.17 588.558 857.77C589.438 857.35 590.398 857.14 591.438 857.14ZM606.952 860.83V868.87C606.952 869.43 607.082 869.84 607.342 870.1C607.622 870.34 608.082 870.46 608.722 870.46H610.672V874H608.032C604.492 874 602.722 872.28 602.722 868.84V860.83H600.742V857.38H602.722V853.27H606.952V857.38H610.672V860.83H606.952ZM612.613 865.63C612.613 863.95 612.943 862.46 613.603 861.16C614.283 859.86 615.193 858.86 616.333 858.16C617.493 857.46 618.783 857.11 620.203 857.11C621.443 857.11 622.523 857.36 623.443 857.86C624.383 858.36 625.133 858.99 625.693 859.75V857.38H629.923V874H625.693V871.57C625.153 872.35 624.403 873 623.443 873.52C622.503 874.02 621.413 874.27 620.173 874.27C618.773 874.27 617.493 873.91 616.333 873.19C615.193 872.47 614.283 871.46 613.603 870.16C612.943 868.84 612.613 867.33 612.613 865.63ZM625.693 865.69C625.693 864.67 625.493 863.8 625.093 863.08C624.693 862.34 624.153 861.78 623.473 861.4C622.793 861 622.063 860.8 621.283 860.8C620.503 860.8 619.783 860.99 619.123 861.37C618.463 861.75 617.923 862.31 617.503 863.05C617.103 863.77 616.903 864.63 616.903 865.63C616.903 866.63 617.103 867.51 617.503 868.27C617.923 869.01 618.463 869.58 619.123 869.98C619.803 870.38 620.523 870.58 621.283 870.58C622.063 870.58 622.793 870.39 623.473 870.01C624.153 869.61 624.693 869.05 625.093 868.33C625.493 867.59 625.693 866.71 625.693 865.69ZM632.945 865.69C632.945 863.97 633.295 862.47 633.995 861.19C634.695 859.89 635.665 858.89 636.905 858.19C638.145 857.47 639.565 857.11 641.165 857.11C643.225 857.11 644.925 857.63 646.265 858.67C647.625 859.69 648.535 861.13 648.995 862.99H644.465C644.225 862.27 643.815 861.71 643.235 861.31C642.675 860.89 641.975 860.68 641.135 860.68C639.935 860.68 638.985 861.12 638.285 862C637.585 862.86 637.235 864.09 637.235 865.69C637.235 867.27 637.585 868.5 638.285 869.38C638.985 870.24 639.935 870.67 641.135 870.67C642.835 870.67 643.945 869.91 644.465 868.39H648.995C648.535 870.19 647.625 871.62 646.265 872.68C644.905 873.74 643.205 874.27 641.165 874.27C639.565 874.27 638.145 873.92 636.905 873.22C635.665 872.5 634.695 871.5 633.995 870.22C633.295 868.92 632.945 867.41 632.945 865.69ZM656.962 860.83V868.87C656.962 869.43 657.092 869.84 657.352 870.1C657.632 870.34 658.092 870.46 658.732 870.46H660.682V874H658.042C654.502 874 652.732 872.28 652.732 868.84V860.83H650.752V857.38H652.732V853.27H656.962V857.38H660.682V860.83H656.962Z" fill="white"/>
<path d="M163.84 83V54.776H170.176V83H163.84ZM177.184 58.904C176.512 59.096 176.112 59.016 175.984 58.664C175.888 58.28 175.952 57.896 176.176 57.512C176.368 57.256 176.624 56.84 176.944 56.264C177.296 55.688 177.632 55.048 177.952 54.344C178.272 53.608 178.48 52.872 178.576 52.136C177.744 52.008 177.136 51.704 176.752 51.224C176.368 50.744 176.176 50.008 176.176 49.016C176.176 47.896 176.432 47.112 176.944 46.664C177.488 46.184 178.368 45.944 179.584 45.944C180.896 45.944 181.872 46.232 182.512 46.808C183.184 47.352 183.52 48.264 183.52 49.544C183.52 50.472 183.312 51.448 182.896 52.472C182.512 53.496 182 54.472 181.36 55.4C180.72 56.296 180.032 57.064 179.296 57.704C178.56 58.312 177.856 58.712 177.184 58.904ZM190.255 83V61.496H194.191L195.391 62.072C196.319 61.912 197.455 61.784 198.799 61.688C200.143 61.56 201.743 61.496 203.599 61.496H205.999C206.927 61.496 207.823 61.624 208.687 61.88C209.551 62.104 210.191 62.44 210.607 62.888C211.439 62.472 212.591 62.136 214.063 61.88C215.535 61.624 217.455 61.496 219.823 61.496H222.223C223.823 61.496 225.055 61.72 225.919 62.168C226.783 62.616 227.391 63.176 227.743 63.848C228.127 64.52 228.351 65.208 228.415 65.912C228.511 66.584 228.559 67.16 228.559 67.64V83H222.703V67.544C222.703 66.264 221.935 65.624 220.399 65.624H213.679C213.167 65.624 212.815 65.688 212.623 65.816C212.431 65.944 212.335 66.232 212.335 66.68V83H206.479V67.544C206.479 66.264 205.711 65.624 204.175 65.624H197.551C196.943 65.624 196.543 65.688 196.351 65.816C196.191 65.912 196.111 66.2 196.111 66.68V83H190.255ZM255.622 83L242.23 54.824H248.95L257.974 74.264L259.27 77.72H259.702L260.95 74.264L270.07 54.824H276.598L275.83 57.704L263.302 83H255.622ZM282.444 58.472C281.26 58.472 280.396 58.232 279.852 57.752C279.308 57.272 279.036 56.472 279.036 55.352C279.036 54.2 279.292 53.4 279.804 52.952C280.348 52.472 281.228 52.232 282.444 52.232C283.66 52.232 284.54 52.472 285.084 52.952C285.628 53.4 285.9 54.2 285.9 55.352C285.9 56.44 285.628 57.24 285.084 57.752C284.54 58.232 283.66 58.472 282.444 58.472ZM279.516 83V61.496H285.372V83H279.516ZM314.638 83.48C313.294 83.48 312.142 83.32 311.182 83C310.254 82.68 309.262 81.992 308.206 80.936C308.11 80.84 307.854 80.584 307.438 80.168C307.022 79.752 306.558 79.288 306.046 78.776C305.566 78.264 305.118 77.8 304.702 77.384C304.286 76.968 304.014 76.696 303.886 76.568C303.086 75.768 302.318 75.144 301.582 74.696C300.878 74.248 299.998 74.024 298.942 74.024C298.238 74.024 297.822 74.088 297.694 74.216C297.566 74.344 297.502 74.776 297.502 75.512V83H291.646V52.616H297.502V69.896H299.038C299.614 69.896 300.126 69.672 300.574 69.224C300.862 68.936 301.406 68.36 302.206 67.496C303.006 66.632 303.902 65.656 304.894 64.568C305.918 63.48 306.846 62.472 307.678 61.544H314.734L313.966 63.032C313.23 63.8 312.43 64.616 311.566 65.48C310.702 66.312 309.854 67.128 309.022 67.928C308.222 68.696 307.486 69.384 306.814 69.992C306.142 70.568 305.63 70.952 305.278 71.144C306.238 71.656 307.102 72.248 307.87 72.92C308.638 73.56 309.47 74.296 310.366 75.128C311.262 75.928 312.334 76.84 313.582 77.864C314.702 78.76 315.742 79.288 316.702 79.448C317.662 79.576 318.238 79.64 318.43 79.64L317.566 83C317.246 83.096 316.814 83.192 316.27 83.288C315.726 83.416 315.182 83.48 314.638 83.48ZM327.51 83C325.078 83 323.318 82.44 322.23 81.32C321.142 80.168 320.598 78.6 320.598 76.616C320.598 74.536 321.158 72.936 322.278 71.816C323.43 70.696 325.174 70.136 327.51 70.136H329.958C332.358 70.136 334.518 70.2 336.438 70.328C338.358 70.456 339.942 70.584 341.19 70.712V67.544C341.19 67.256 341.158 66.968 341.094 66.68C341.03 66.36 340.838 66.104 340.518 65.912C340.198 65.72 339.654 65.624 338.886 65.624H336.486C332.998 65.624 330.086 65.688 327.75 65.816C325.414 65.912 323.83 66.008 322.998 66.104L322.47 62.456C322.47 62.008 323.686 61.736 326.118 61.64C328.55 61.544 332.614 61.496 338.31 61.496H340.71C342.31 61.496 343.542 61.72 344.406 62.168C345.27 62.616 345.878 63.176 346.23 63.848C346.614 64.52 346.838 65.208 346.902 65.912C346.998 66.584 347.046 67.16 347.046 67.64V83H343.109L341.238 82.04C339.894 82.264 338.278 82.488 336.39 82.712C334.502 82.904 332.342 83 329.91 83H327.51ZM328.758 78.872H339.75C340.454 78.872 340.87 78.808 340.998 78.68C341.126 78.552 341.19 78.152 341.19 77.48V73.784H328.758C327.894 73.784 327.286 73.992 326.934 74.408C326.614 74.824 326.454 75.48 326.454 76.376C326.454 77.272 326.646 77.912 327.03 78.296C327.414 78.68 327.99 78.872 328.758 78.872ZM358.007 83C355.863 83 354.343 82.888 353.447 82.664C352.551 82.44 352.103 82.216 352.103 81.992L353.543 78.392C354.471 78.488 356.167 78.6 358.631 78.728C361.127 78.824 364.199 78.872 367.847 78.872H370.247C371.047 78.872 371.543 78.664 371.735 78.248C371.959 77.8 372.071 77.208 372.071 76.472C372.071 75.736 371.943 75.144 371.687 74.696C371.463 74.248 370.983 74.024 370.247 74.024H358.439C356.199 74.024 354.583 73.608 353.591 72.776C352.599 71.912 352.103 70.632 352.103 68.936V67.016C352.103 66.568 352.151 66.04 352.247 65.432C352.343 64.824 352.583 64.216 352.967 63.608C353.351 63 353.975 62.504 354.839 62.12C355.703 61.704 356.903 61.496 358.439 61.496H371.687C373.607 61.496 374.967 61.608 375.767 61.832C376.567 62.056 376.967 62.28 376.967 62.504L376.487 66.104C375.559 66.008 373.847 65.912 371.351 65.816C368.855 65.688 365.799 65.624 362.183 65.624H359.783C358.983 65.624 358.471 65.848 358.247 66.296C358.055 66.712 357.959 67.208 357.959 67.784C357.959 68.392 358.055 68.904 358.247 69.32C358.471 69.704 358.983 69.896 359.783 69.896H371.591C373.767 69.896 375.367 70.344 376.391 71.24C377.415 72.136 377.927 73.272 377.927 74.648V77.48C377.927 78.056 377.879 78.664 377.783 79.304C377.719 79.944 377.495 80.552 377.111 81.128C376.727 81.672 376.103 82.12 375.239 82.472C374.375 82.824 373.159 83 371.591 83H358.007Z" fill="white"/>
<path d="M469.91 75.01H461.57L460.19 79H455.78L463.31 58.03H468.2L475.73 79H471.29L469.91 75.01ZM468.77 71.65L465.74 62.89L462.71 71.65H468.77ZM482.745 64.81C483.285 64.01 484.025 63.36 484.965 62.86C485.925 62.36 487.015 62.11 488.235 62.11C489.655 62.11 490.935 62.46 492.075 63.16C493.235 63.86 494.145 64.86 494.805 66.16C495.485 67.44 495.825 68.93 495.825 70.63C495.825 72.33 495.485 73.84 494.805 75.16C494.145 76.46 493.235 77.47 492.075 78.19C490.935 78.91 489.655 79.27 488.235 79.27C486.995 79.27 485.905 79.03 484.965 78.55C484.045 78.05 483.305 77.41 482.745 76.63V79H478.545V56.8H482.745V64.81ZM491.535 70.63C491.535 69.63 491.325 68.77 490.905 68.05C490.505 67.31 489.965 66.75 489.285 66.37C488.625 65.99 487.905 65.8 487.125 65.8C486.365 65.8 485.645 66 484.965 66.4C484.305 66.78 483.765 67.34 483.345 68.08C482.945 68.82 482.745 69.69 482.745 70.69C482.745 71.69 482.945 72.56 483.345 73.3C483.765 74.04 484.305 74.61 484.965 75.01C485.645 75.39 486.365 75.58 487.125 75.58C487.905 75.58 488.625 75.38 489.285 74.98C489.965 74.58 490.505 74.01 490.905 73.27C491.325 72.53 491.535 71.65 491.535 70.63ZM506.257 79.27C504.657 79.27 503.217 78.92 501.937 78.22C500.657 77.5 499.647 76.49 498.907 75.19C498.187 73.89 497.827 72.39 497.827 70.69C497.827 68.99 498.197 67.49 498.937 66.19C499.697 64.89 500.727 63.89 502.027 63.19C503.327 62.47 504.777 62.11 506.377 62.11C507.977 62.11 509.427 62.47 510.727 63.19C512.027 63.89 513.047 64.89 513.787 66.19C514.547 67.49 514.927 68.99 514.927 70.69C514.927 72.39 514.537 73.89 513.757 75.19C512.997 76.49 511.957 77.5 510.637 78.22C509.337 78.92 507.877 79.27 506.257 79.27ZM506.257 75.61C507.017 75.61 507.727 75.43 508.387 75.07C509.067 74.69 509.607 74.13 510.007 73.39C510.407 72.65 510.607 71.75 510.607 70.69C510.607 69.11 510.187 67.9 509.347 67.06C508.527 66.2 507.517 65.77 506.317 65.77C505.117 65.77 504.107 66.2 503.287 67.06C502.487 67.9 502.087 69.11 502.087 70.69C502.087 72.27 502.477 73.49 503.257 74.35C504.057 75.19 505.057 75.61 506.257 75.61ZM533.698 62.38V79H529.468V76.9C528.928 77.62 528.218 78.19 527.338 78.61C526.478 79.01 525.538 79.21 524.518 79.21C523.218 79.21 522.068 78.94 521.068 78.4C520.068 77.84 519.278 77.03 518.698 75.97C518.138 74.89 517.858 73.61 517.858 72.13V62.38H522.058V71.53C522.058 72.85 522.388 73.87 523.048 74.59C523.708 75.29 524.608 75.64 525.748 75.64C526.908 75.64 527.818 75.29 528.478 74.59C529.138 73.87 529.468 72.85 529.468 71.53V62.38H533.698ZM542.731 65.83V73.87C542.731 74.43 542.861 74.84 543.121 75.1C543.401 75.34 543.861 75.46 544.501 75.46H546.451V79H543.811C540.271 79 538.501 77.28 538.501 73.84V65.83H536.521V62.38H538.501V58.27H542.731V62.38H546.451V65.83H542.731Z" fill="white"/>
<path d="M589.27 61.45V66.7H596.32V70.03H589.27V75.58H597.22V79H585.07V58.03H597.22V61.45H589.27ZM610.217 79L606.797 73.84L603.767 79H599.267L604.697 70.66L599.207 62.38H603.947L607.337 67.51L610.397 62.38H614.897L609.437 70.66L614.957 79H610.217ZM621.438 64.78C621.978 64.02 622.718 63.39 623.658 62.89C624.618 62.37 625.708 62.11 626.928 62.11C628.348 62.11 629.628 62.46 630.768 63.16C631.928 63.86 632.838 64.86 633.498 66.16C634.178 67.44 634.518 68.93 634.518 70.63C634.518 72.33 634.178 73.84 633.498 75.16C632.838 76.46 631.928 77.47 630.768 78.19C629.628 78.91 628.348 79.27 626.928 79.27C625.708 79.27 624.628 79.02 623.688 78.52C622.768 78.02 622.018 77.39 621.438 76.63V86.92H617.238V62.38H621.438V64.78ZM630.228 70.63C630.228 69.63 630.018 68.77 629.598 68.05C629.198 67.31 628.658 66.75 627.978 66.37C627.318 65.99 626.598 65.8 625.818 65.8C625.058 65.8 624.338 66 623.658 66.4C622.998 66.78 622.458 67.34 622.038 68.08C621.638 68.82 621.438 69.69 621.438 70.69C621.438 71.69 621.638 72.56 622.038 73.3C622.458 74.04 622.998 74.61 623.658 75.01C624.338 75.39 625.058 75.58 625.818 75.58C626.598 75.58 627.318 75.38 627.978 74.98C628.658 74.58 629.198 74.01 629.598 73.27C630.018 72.53 630.228 71.65 630.228 70.63ZM653.02 70.33C653.02 70.93 652.98 71.47 652.9 71.95H640.75C640.85 73.15 641.27 74.09 642.01 74.77C642.75 75.45 643.66 75.79 644.74 75.79C646.3 75.79 647.41 75.12 648.07 73.78H652.6C652.12 75.38 651.2 76.7 649.84 77.74C648.48 78.76 646.81 79.27 644.83 79.27C643.23 79.27 641.79 78.92 640.51 78.22C639.25 77.5 638.26 76.49 637.54 75.19C636.84 73.89 636.49 72.39 636.49 70.69C636.49 68.97 636.84 67.46 637.54 66.16C638.24 64.86 639.22 63.86 640.48 63.16C641.74 62.46 643.19 62.11 644.83 62.11C646.41 62.11 647.82 62.45 649.06 63.13C650.32 63.81 651.29 64.78 651.97 66.04C652.67 67.28 653.02 68.71 653.02 70.33ZM648.67 69.13C648.65 68.05 648.26 67.19 647.5 66.55C646.74 65.89 645.81 65.56 644.71 65.56C643.67 65.56 642.79 65.88 642.07 66.52C641.37 67.14 640.94 68.01 640.78 69.13H648.67ZM660.286 64.96C660.826 64.08 661.526 63.39 662.386 62.89C663.266 62.39 664.266 62.14 665.386 62.14V66.55H664.276C662.956 66.55 661.956 66.86 661.276 67.48C660.616 68.1 660.286 69.18 660.286 70.72V79H656.086V62.38H660.286V64.96ZM670.345 60.4C669.605 60.4 668.985 60.17 668.485 59.71C668.005 59.23 667.765 58.64 667.765 57.94C667.765 57.24 668.005 56.66 668.485 56.2C668.985 55.72 669.605 55.48 670.345 55.48C671.085 55.48 671.695 55.72 672.175 56.2C672.675 56.66 672.925 57.24 672.925 57.94C672.925 58.64 672.675 59.23 672.175 59.71C671.695 60.17 671.085 60.4 670.345 60.4ZM672.415 62.38V79H668.215V62.38H672.415ZM692.014 70.33C692.014 70.93 691.974 71.47 691.894 71.95H679.744C679.844 73.15 680.264 74.09 681.004 74.77C681.744 75.45 682.654 75.79 683.734 75.79C685.294 75.79 686.404 75.12 687.064 73.78H691.594C691.114 75.38 690.194 76.7 688.834 77.74C687.474 78.76 685.804 79.27 683.824 79.27C682.224 79.27 680.784 78.92 679.504 78.22C678.244 77.5 677.254 76.49 676.534 75.19C675.834 73.89 675.484 72.39 675.484 70.69C675.484 68.97 675.834 67.46 676.534 66.16C677.234 64.86 678.214 63.86 679.474 63.16C680.734 62.46 682.184 62.11 683.824 62.11C685.404 62.11 686.814 62.45 688.054 63.13C689.314 63.81 690.284 64.78 690.964 66.04C691.664 67.28 692.014 68.71 692.014 70.33ZM687.664 69.13C687.644 68.05 687.254 67.19 686.494 66.55C685.734 65.89 684.804 65.56 683.704 65.56C682.664 65.56 681.784 65.88 681.064 66.52C680.364 67.14 679.934 68.01 679.774 69.13H687.664ZM704.29 62.14C706.27 62.14 707.87 62.77 709.09 64.03C710.31 65.27 710.92 67.01 710.92 69.25V79H706.72V69.82C706.72 68.5 706.39 67.49 705.73 66.79C705.07 66.07 704.17 65.71 703.03 65.71C701.87 65.71 700.95 66.07 700.27 66.79C699.61 67.49 699.28 68.5 699.28 69.82V79H695.08V62.38H699.28V64.45C699.84 63.73 700.55 63.17 701.41 62.77C702.29 62.35 703.25 62.14 704.29 62.14ZM713.834 70.69C713.834 68.97 714.184 67.47 714.884 66.19C715.584 64.89 716.554 63.89 717.794 63.19C719.034 62.47 720.454 62.11 722.054 62.11C724.114 62.11 725.814 62.63 727.154 63.67C728.514 64.69 729.424 66.13 729.884 67.99H725.354C725.114 67.27 724.704 66.71 724.124 66.31C723.564 65.89 722.864 65.68 722.024 65.68C720.824 65.68 719.874 66.12 719.174 67C718.474 67.86 718.124 69.09 718.124 70.69C718.124 72.27 718.474 73.5 719.174 74.38C719.874 75.24 720.824 75.67 722.024 75.67C723.724 75.67 724.834 74.91 725.354 73.39H729.884C729.424 75.19 728.514 76.62 727.154 77.68C725.794 78.74 724.094 79.27 722.054 79.27C720.454 79.27 719.034 78.92 717.794 78.22C716.554 77.5 715.584 76.5 714.884 75.22C714.184 73.92 713.834 72.41 713.834 70.69ZM748.411 70.33C748.411 70.93 748.371 71.47 748.291 71.95H736.141C736.241 73.15 736.661 74.09 737.401 74.77C738.141 75.45 739.051 75.79 740.131 75.79C741.691 75.79 742.801 75.12 743.461 73.78H747.991C747.511 75.38 746.591 76.7 745.231 77.74C743.871 78.76 742.201 79.27 740.221 79.27C738.621 79.27 737.181 78.92 735.901 78.22C734.641 77.5 733.651 76.49 732.931 75.19C732.231 73.89 731.881 72.39 731.881 70.69C731.881 68.97 732.231 67.46 732.931 66.16C733.631 64.86 734.611 63.86 735.871 63.16C737.131 62.46 738.581 62.11 740.221 62.11C741.801 62.11 743.211 62.45 744.451 63.13C745.711 63.81 746.681 64.78 747.361 66.04C748.061 67.28 748.411 68.71 748.411 70.33ZM744.061 69.13C744.041 68.05 743.651 67.19 742.891 66.55C742.131 65.89 741.201 65.56 740.101 65.56C739.061 65.56 738.181 65.88 737.461 66.52C736.761 67.14 736.331 68.01 736.171 69.13H744.061Z" fill="white"/>
<path d="M791.27 61.45V66.7H798.32V70.03H791.27V75.58H799.22V79H787.07V58.03H799.22V61.45H791.27ZM801.957 70.63C801.957 68.95 802.287 67.46 802.947 66.16C803.627 64.86 804.547 63.86 805.707 63.16C806.867 62.46 808.157 62.11 809.577 62.11C810.657 62.11 811.687 62.35 812.667 62.83C813.647 63.29 814.427 63.91 815.007 64.69V56.8H819.267V79H815.007V76.54C814.487 77.36 813.757 78.02 812.817 78.52C811.877 79.02 810.787 79.27 809.547 79.27C808.147 79.27 806.867 78.91 805.707 78.19C804.547 77.47 803.627 76.46 802.947 75.16C802.287 73.84 801.957 72.33 801.957 70.63ZM815.037 70.69C815.037 69.67 814.837 68.8 814.437 68.08C814.037 67.34 813.497 66.78 812.817 66.4C812.137 66 811.407 65.8 810.627 65.8C809.847 65.8 809.127 65.99 808.467 66.37C807.807 66.75 807.267 67.31 806.847 68.05C806.447 68.77 806.247 69.63 806.247 70.63C806.247 71.63 806.447 72.51 806.847 73.27C807.267 74.01 807.807 74.58 808.467 74.98C809.147 75.38 809.867 75.58 810.627 75.58C811.407 75.58 812.137 75.39 812.817 75.01C813.497 74.61 814.037 74.05 814.437 73.33C814.837 72.59 815.037 71.71 815.037 70.69ZM839.059 62.38V79H834.829V76.9C834.289 77.62 833.579 78.19 832.699 78.61C831.839 79.01 830.899 79.21 829.879 79.21C828.579 79.21 827.429 78.94 826.429 78.4C825.429 77.84 824.639 77.03 824.059 75.97C823.499 74.89 823.219 73.61 823.219 72.13V62.38H827.419V71.53C827.419 72.85 827.749 73.87 828.409 74.59C829.069 75.29 829.969 75.64 831.109 75.64C832.269 75.64 833.179 75.29 833.839 74.59C834.499 73.87 834.829 72.85 834.829 71.53V62.38H839.059ZM842.123 70.69C842.123 68.97 842.473 67.47 843.173 66.19C843.873 64.89 844.843 63.89 846.083 63.19C847.323 62.47 848.743 62.11 850.343 62.11C852.403 62.11 854.103 62.63 855.443 63.67C856.803 64.69 857.713 66.13 858.173 67.99H853.643C853.403 67.27 852.993 66.71 852.413 66.31C851.853 65.89 851.153 65.68 850.313 65.68C849.113 65.68 848.163 66.12 847.463 67C846.763 67.86 846.413 69.09 846.413 70.69C846.413 72.27 846.763 73.5 847.463 74.38C848.163 75.24 849.113 75.67 850.313 75.67C852.013 75.67 853.123 74.91 853.643 73.39H858.173C857.713 75.19 856.803 76.62 855.443 77.68C854.083 78.74 852.383 79.27 850.343 79.27C848.743 79.27 847.323 78.92 846.083 78.22C844.843 77.5 843.873 76.5 843.173 75.22C842.473 73.92 842.123 72.41 842.123 70.69ZM860.17 70.63C860.17 68.95 860.5 67.46 861.16 66.16C861.84 64.86 862.75 63.86 863.89 63.16C865.05 62.46 866.34 62.11 867.76 62.11C869 62.11 870.08 62.36 871 62.86C871.94 63.36 872.69 63.99 873.25 64.75V62.38H877.48V79H873.25V76.57C872.71 77.35 871.96 78 871 78.52C870.06 79.02 868.97 79.27 867.73 79.27C866.33 79.27 865.05 78.91 863.89 78.19C862.75 77.47 861.84 76.46 861.16 75.16C860.5 73.84 860.17 72.33 860.17 70.63ZM873.25 70.69C873.25 69.67 873.05 68.8 872.65 68.08C872.25 67.34 871.71 66.78 871.03 66.4C870.35 66 869.62 65.8 868.84 65.8C868.06 65.8 867.34 65.99 866.68 66.37C866.02 66.75 865.48 67.31 865.06 68.05C864.66 68.77 864.46 69.63 864.46 70.63C864.46 71.63 864.66 72.51 865.06 73.27C865.48 74.01 866.02 74.58 866.68 74.98C867.36 75.38 868.08 75.58 868.84 75.58C869.62 75.58 870.35 75.39 871.03 75.01C871.71 74.61 872.25 74.05 872.65 73.33C873.05 72.59 873.25 71.71 873.25 70.69ZM886.472 65.83V73.87C886.472 74.43 886.602 74.84 886.862 75.1C887.142 75.34 887.602 75.46 888.242 75.46H890.192V79H887.552C884.012 79 882.242 77.28 882.242 73.84V65.83H880.262V62.38H882.242V58.27H886.472V62.38H890.192V65.83H886.472ZM895.343 60.4C894.603 60.4 893.983 60.17 893.483 59.71C893.003 59.23 892.763 58.64 892.763 57.94C892.763 57.24 893.003 56.66 893.483 56.2C893.983 55.72 894.603 55.48 895.343 55.48C896.083 55.48 896.693 55.72 897.173 56.2C897.673 56.66 897.923 57.24 897.923 57.94C897.923 58.64 897.673 59.23 897.173 59.71C896.693 60.17 896.083 60.4 895.343 60.4ZM897.413 62.38V79H893.213V62.38H897.413ZM908.942 79.27C907.342 79.27 905.902 78.92 904.622 78.22C903.342 77.5 902.332 76.49 901.592 75.19C900.872 73.89 900.512 72.39 900.512 70.69C900.512 68.99 900.882 67.49 901.622 66.19C902.382 64.89 903.412 63.89 904.712 63.19C906.012 62.47 907.462 62.11 909.062 62.11C910.662 62.11 912.112 62.47 913.412 63.19C914.712 63.89 915.732 64.89 916.472 66.19C917.232 67.49 917.612 68.99 917.612 70.69C917.612 72.39 917.222 73.89 916.442 75.19C915.682 76.49 914.642 77.5 913.322 78.22C912.022 78.92 910.562 79.27 908.942 79.27ZM908.942 75.61C909.702 75.61 910.412 75.43 911.072 75.07C911.752 74.69 912.292 74.13 912.692 73.39C913.092 72.65 913.292 71.75 913.292 70.69C913.292 69.11 912.872 67.9 912.032 67.06C911.212 66.2 910.202 65.77 909.002 65.77C907.802 65.77 906.792 66.2 905.972 67.06C905.172 67.9 904.772 69.11 904.772 70.69C904.772 72.27 905.162 73.49 905.942 74.35C906.742 75.19 907.742 75.61 908.942 75.61ZM929.903 62.14C931.883 62.14 933.483 62.77 934.703 64.03C935.923 65.27 936.533 67.01 936.533 69.25V79H932.333V69.82C932.333 68.5 932.003 67.49 931.343 66.79C930.683 66.07 929.783 65.71 928.643 65.71C927.483 65.71 926.563 66.07 925.883 66.79C925.223 67.49 924.893 68.5 924.893 69.82V79H920.693V62.38H924.893V64.45C925.453 63.73 926.163 63.17 927.023 62.77C927.903 62.35 928.863 62.14 929.903 62.14Z" fill="white"/>
<path d="M991.34 64.54C991.34 65.66 991.07 66.71 990.53 67.69C990.01 68.67 989.18 69.46 988.04 70.06C986.92 70.66 985.5 70.96 983.78 70.96H980.27V79H976.07V58.06H983.78C985.4 58.06 986.78 58.34 987.92 58.9C989.06 59.46 989.91 60.23 990.47 61.21C991.05 62.19 991.34 63.3 991.34 64.54ZM983.6 67.57C984.76 67.57 985.62 67.31 986.18 66.79C986.74 66.25 987.02 65.5 987.02 64.54C987.02 62.5 985.88 61.48 983.6 61.48H980.27V67.57H983.6ZM1001.7 79.27C1000.1 79.27 998.662 78.92 997.382 78.22C996.102 77.5 995.092 76.49 994.352 75.19C993.632 73.89 993.272 72.39 993.272 70.69C993.272 68.99 993.642 67.49 994.382 66.19C995.142 64.89 996.172 63.89 997.472 63.19C998.772 62.47 1000.22 62.11 1001.82 62.11C1003.42 62.11 1004.87 62.47 1006.17 63.19C1007.47 63.89 1008.49 64.89 1009.23 66.19C1009.99 67.49 1010.37 68.99 1010.37 70.69C1010.37 72.39 1009.98 73.89 1009.2 75.19C1008.44 76.49 1007.4 77.5 1006.08 78.22C1004.78 78.92 1003.32 79.27 1001.7 79.27ZM1001.7 75.61C1002.46 75.61 1003.17 75.43 1003.83 75.07C1004.51 74.69 1005.05 74.13 1005.45 73.39C1005.85 72.65 1006.05 71.75 1006.05 70.69C1006.05 69.11 1005.63 67.9 1004.79 67.06C1003.97 66.2 1002.96 65.77 1001.76 65.77C1000.56 65.77 999.552 66.2 998.732 67.06C997.932 67.9 997.532 69.11 997.532 70.69C997.532 72.27 997.922 73.49 998.702 74.35C999.502 75.19 1000.5 75.61 1001.7 75.61ZM1017.65 64.96C1018.19 64.08 1018.89 63.39 1019.75 62.89C1020.63 62.39 1021.63 62.14 1022.75 62.14V66.55H1021.64C1020.32 66.55 1019.32 66.86 1018.64 67.48C1017.98 68.1 1017.65 69.18 1017.65 70.72V79H1013.45V62.38H1017.65V64.96ZM1030.47 65.83V73.87C1030.47 74.43 1030.6 74.84 1030.86 75.1C1031.14 75.34 1031.6 75.46 1032.24 75.46H1034.19V79H1031.55C1028.01 79 1026.24 77.28 1026.24 73.84V65.83H1024.26V62.38H1026.24V58.27H1030.47V62.38H1034.19V65.83H1030.47ZM1044.83 65.83H1041.92V79H1037.66V65.83H1035.77V62.38H1037.66V61.54C1037.66 59.5 1038.24 58 1039.4 57.04C1040.56 56.08 1042.31 55.63 1044.65 55.69V59.23C1043.63 59.21 1042.92 59.38 1042.52 59.74C1042.12 60.1 1041.92 60.75 1041.92 61.69V62.38H1044.83V65.83ZM1054.93 79.27C1053.33 79.27 1051.89 78.92 1050.61 78.22C1049.33 77.5 1048.32 76.49 1047.58 75.19C1046.86 73.89 1046.5 72.39 1046.5 70.69C1046.5 68.99 1046.87 67.49 1047.61 66.19C1048.37 64.89 1049.4 63.89 1050.7 63.19C1052 62.47 1053.45 62.11 1055.05 62.11C1056.65 62.11 1058.1 62.47 1059.4 63.19C1060.7 63.89 1061.72 64.89 1062.46 66.19C1063.22 67.49 1063.6 68.99 1063.6 70.69C1063.6 72.39 1063.21 73.89 1062.43 75.19C1061.67 76.49 1060.63 77.5 1059.31 78.22C1058.01 78.92 1056.55 79.27 1054.93 79.27ZM1054.93 75.61C1055.69 75.61 1056.4 75.43 1057.06 75.07C1057.74 74.69 1058.28 74.13 1058.68 73.39C1059.08 72.65 1059.28 71.75 1059.28 70.69C1059.28 69.11 1058.86 67.9 1058.02 67.06C1057.2 66.2 1056.19 65.77 1054.99 65.77C1053.79 65.77 1052.78 66.2 1051.96 67.06C1051.16 67.9 1050.76 69.11 1050.76 70.69C1050.76 72.27 1051.15 73.49 1051.93 74.35C1052.73 75.19 1053.73 75.61 1054.93 75.61ZM1070.89 56.8V79H1066.69V56.8H1070.89ZM1077.16 60.4C1076.42 60.4 1075.8 60.17 1075.3 59.71C1074.82 59.23 1074.58 58.64 1074.58 57.94C1074.58 57.24 1074.82 56.66 1075.3 56.2C1075.8 55.72 1076.42 55.48 1077.16 55.48C1077.9 55.48 1078.51 55.72 1078.99 56.2C1079.49 56.66 1079.74 57.24 1079.74 57.94C1079.74 58.64 1079.49 59.23 1078.99 59.71C1078.51 60.17 1077.9 60.4 1077.16 60.4ZM1079.23 62.38V79H1075.03V62.38H1079.23ZM1090.76 79.27C1089.16 79.27 1087.72 78.92 1086.44 78.22C1085.16 77.5 1084.15 76.49 1083.41 75.19C1082.69 73.89 1082.33 72.39 1082.33 70.69C1082.33 68.99 1082.7 67.49 1083.44 66.19C1084.2 64.89 1085.23 63.89 1086.53 63.19C1087.83 62.47 1089.28 62.11 1090.88 62.11C1092.48 62.11 1093.93 62.47 1095.23 63.19C1096.53 63.89 1097.55 64.89 1098.29 66.19C1099.05 67.49 1099.43 68.99 1099.43 70.69C1099.43 72.39 1099.04 73.89 1098.26 75.19C1097.5 76.49 1096.46 77.5 1095.14 78.22C1093.84 78.92 1092.38 79.27 1090.76 79.27ZM1090.76 75.61C1091.52 75.61 1092.23 75.43 1092.89 75.07C1093.57 74.69 1094.11 74.13 1094.51 73.39C1094.91 72.65 1095.11 71.75 1095.11 70.69C1095.11 69.11 1094.69 67.9 1093.85 67.06C1093.03 66.2 1092.02 65.77 1090.82 65.77C1089.62 65.77 1088.61 66.2 1087.79 67.06C1086.99 67.9 1086.59 69.11 1086.59 70.69C1086.59 72.27 1086.98 73.49 1087.76 74.35C1088.56 75.19 1089.56 75.61 1090.76 75.61Z" fill="white"/>
<rect x="1136" y="42" width="144" height="53" rx="4" fill="white"/>
<path d="M1147.05 68.5C1147.05 66.44 1147.51 64.6 1148.43 62.98C1149.37 61.34 1150.64 60.07 1152.24 59.17C1153.86 58.25 1155.67 57.79 1157.67 57.79C1160.01 57.79 1162.06 58.39 1163.82 59.59C1165.58 60.79 1166.81 62.45 1167.51 64.57H1162.68C1162.2 63.57 1161.52 62.82 1160.64 62.32C1159.78 61.82 1158.78 61.57 1157.64 61.57C1156.42 61.57 1155.33 61.86 1154.37 62.44C1153.43 63 1152.69 63.8 1152.15 64.84C1151.63 65.88 1151.37 67.1 1151.37 68.5C1151.37 69.88 1151.63 71.1 1152.15 72.16C1152.69 73.2 1153.43 74.01 1154.37 74.59C1155.33 75.15 1156.42 75.43 1157.64 75.43C1158.78 75.43 1159.78 75.18 1160.64 74.68C1161.52 74.16 1162.2 73.4 1162.68 72.4H1167.51C1166.81 74.54 1165.58 76.21 1163.82 77.41C1162.08 78.59 1160.03 79.18 1157.67 79.18C1155.67 79.18 1153.86 78.73 1152.24 77.83C1150.64 76.91 1149.37 75.64 1148.43 74.02C1147.51 72.4 1147.05 70.56 1147.05 68.5ZM1178.48 79.27C1176.88 79.27 1175.44 78.92 1174.16 78.22C1172.88 77.5 1171.87 76.49 1171.13 75.19C1170.41 73.89 1170.05 72.39 1170.05 70.69C1170.05 68.99 1170.42 67.49 1171.16 66.19C1171.92 64.89 1172.95 63.89 1174.25 63.19C1175.55 62.47 1177 62.11 1178.6 62.11C1180.2 62.11 1181.65 62.47 1182.95 63.19C1184.25 63.89 1185.27 64.89 1186.01 66.19C1186.77 67.49 1187.15 68.99 1187.15 70.69C1187.15 72.39 1186.76 73.89 1185.98 75.19C1185.22 76.49 1184.18 77.5 1182.86 78.22C1181.56 78.92 1180.1 79.27 1178.48 79.27ZM1178.48 75.61C1179.24 75.61 1179.95 75.43 1180.61 75.07C1181.29 74.69 1181.83 74.13 1182.23 73.39C1182.63 72.65 1182.83 71.75 1182.83 70.69C1182.83 69.11 1182.41 67.9 1181.57 67.06C1180.75 66.2 1179.74 65.77 1178.54 65.77C1177.34 65.77 1176.33 66.2 1175.51 67.06C1174.71 67.9 1174.31 69.11 1174.31 70.69C1174.31 72.27 1174.7 73.49 1175.48 74.35C1176.28 75.19 1177.28 75.61 1178.48 75.61ZM1199.44 62.14C1201.42 62.14 1203.02 62.77 1204.24 64.03C1205.46 65.27 1206.07 67.01 1206.07 69.25V79H1201.87V69.82C1201.87 68.5 1201.54 67.49 1200.88 66.79C1200.22 66.07 1199.32 65.71 1198.18 65.71C1197.02 65.71 1196.1 66.07 1195.42 66.79C1194.76 67.49 1194.43 68.5 1194.43 69.82V79H1190.23V62.38H1194.43V64.45C1194.99 63.73 1195.7 63.17 1196.56 62.77C1197.44 62.35 1198.4 62.14 1199.44 62.14ZM1214.95 65.83V73.87C1214.95 74.43 1215.08 74.84 1215.34 75.1C1215.62 75.34 1216.08 75.46 1216.72 75.46H1218.67V79H1216.03C1212.49 79 1210.72 77.28 1210.72 73.84V65.83H1208.74V62.38H1210.72V58.27H1214.95V62.38H1218.67V65.83H1214.95ZM1220.61 70.63C1220.61 68.95 1220.94 67.46 1221.6 66.16C1222.28 64.86 1223.19 63.86 1224.33 63.16C1225.49 62.46 1226.78 62.11 1228.2 62.11C1229.44 62.11 1230.52 62.36 1231.44 62.86C1232.38 63.36 1233.13 63.99 1233.69 64.75V62.38H1237.92V79H1233.69V76.57C1233.15 77.35 1232.4 78 1231.44 78.52C1230.5 79.02 1229.41 79.27 1228.17 79.27C1226.77 79.27 1225.49 78.91 1224.33 78.19C1223.19 77.47 1222.28 76.46 1221.6 75.16C1220.94 73.84 1220.61 72.33 1220.61 70.63ZM1233.69 70.69C1233.69 69.67 1233.49 68.8 1233.09 68.08C1232.69 67.34 1232.15 66.78 1231.47 66.4C1230.79 66 1230.06 65.8 1229.28 65.8C1228.5 65.8 1227.78 65.99 1227.12 66.37C1226.46 66.75 1225.92 67.31 1225.5 68.05C1225.1 68.77 1224.9 69.63 1224.9 70.63C1224.9 71.63 1225.1 72.51 1225.5 73.27C1225.92 74.01 1226.46 74.58 1227.12 74.98C1227.8 75.38 1228.52 75.58 1229.28 75.58C1230.06 75.58 1230.79 75.39 1231.47 75.01C1232.15 74.61 1232.69 74.05 1233.09 73.33C1233.49 72.59 1233.69 71.71 1233.69 70.69ZM1240.95 70.69C1240.95 68.97 1241.3 67.47 1242 66.19C1242.7 64.89 1243.67 63.89 1244.91 63.19C1246.15 62.47 1247.57 62.11 1249.17 62.11C1251.23 62.11 1252.93 62.63 1254.27 63.67C1255.63 64.69 1256.54 66.13 1257 67.99H1252.47C1252.23 67.27 1251.82 66.71 1251.24 66.31C1250.68 65.89 1249.98 65.68 1249.14 65.68C1247.94 65.68 1246.99 66.12 1246.29 67C1245.59 67.86 1245.24 69.09 1245.24 70.69C1245.24 72.27 1245.59 73.5 1246.29 74.38C1246.99 75.24 1247.94 75.67 1249.14 75.67C1250.84 75.67 1251.95 74.91 1252.47 73.39H1257C1256.54 75.19 1255.63 76.62 1254.27 77.68C1252.91 78.74 1251.21 79.27 1249.17 79.27C1247.57 79.27 1246.15 78.92 1244.91 78.22C1243.67 77.5 1242.7 76.5 1242 75.22C1241.3 73.92 1240.95 72.41 1240.95 70.69ZM1264.96 65.83V73.87C1264.96 74.43 1265.09 74.84 1265.35 75.1C1265.63 75.34 1266.09 75.46 1266.73 75.46H1268.68V79H1266.04C1262.5 79 1260.73 77.28 1260.73 73.84V65.83H1258.75V62.38H1260.73V58.27H1264.96V62.38H1268.68V65.83H1264.96Z" fill="black"/>
<path d="M176.71 301C173.397 301 170.807 300.533 168.94 299.6C167.073 298.667 165.767 297.267 165.02 295.4C164.273 293.533 163.9 291.223 163.9 288.47V272.86C163.9 268.38 164.903 265.09 166.91 262.99C168.917 260.843 172.183 259.77 176.71 259.77H197.78C201 259.77 203.45 259.957 205.13 260.33C206.857 260.657 207.72 261.007 207.72 261.38L206.32 267.19C205.527 267.05 203.17 266.91 199.25 266.77C195.377 266.583 189.73 266.49 182.31 266.49H178.74C175.007 266.49 173.14 268.147 173.14 271.46V289.31C173.14 290.897 173.537 292.133 174.33 293.02C175.17 293.86 176.64 294.28 178.74 294.28H181.61C189.357 294.28 195.353 294.21 199.6 294.07C203.893 293.883 206.553 293.697 207.58 293.51L210.45 298.13C210.45 298.363 210.053 298.713 209.26 299.18C208.513 299.647 207.113 300.067 205.06 300.44C203.007 300.813 200.043 301 196.17 301H176.71ZM224.582 301C221.455 301 219.122 300.37 217.582 299.11C216.088 297.85 215.342 295.797 215.342 292.95V278.6C215.342 277.9 215.388 277.06 215.482 276.08C215.622 275.053 215.948 274.05 216.462 273.07C217.022 272.09 217.932 271.273 219.192 270.62C220.498 269.967 222.295 269.64 224.582 269.64H243.902C246.235 269.64 248.032 269.967 249.292 270.62C250.552 271.273 251.438 272.09 251.952 273.07C252.512 274.05 252.838 275.053 252.932 276.08C253.072 277.06 253.142 277.9 253.142 278.6V292.04C253.142 292.88 253.072 293.813 252.932 294.84C252.838 295.867 252.512 296.847 251.952 297.78C251.392 298.713 250.482 299.483 249.222 300.09C247.962 300.697 246.188 301 243.902 301H224.582ZM227.242 294.98H241.242C243.528 294.98 244.672 294.047 244.672 292.18V278.46C244.672 276.593 243.528 275.66 241.242 275.66H227.242C225.002 275.66 223.882 276.593 223.882 278.46V292.18C223.882 294.047 225.002 294.98 227.242 294.98ZM260.817 301V269.64H266.557L269.357 271.04C271.317 270.667 273.674 270.34 276.427 270.06C279.181 269.78 282.331 269.64 285.877 269.64H289.377C291.711 269.64 293.507 269.967 294.767 270.62C296.027 271.273 296.914 272.09 297.427 273.07C297.987 274.05 298.314 275.053 298.407 276.08C298.547 277.06 298.617 277.9 298.617 278.6V301H290.077V278.46C290.077 276.593 288.957 275.66 286.717 275.66H271.457C270.571 275.66 269.987 275.753 269.707 275.94C269.474 276.08 269.357 276.5 269.357 277.2V301H260.817ZM318.866 301C315.32 301 312.893 300.253 311.586 298.76C310.28 297.267 309.626 295.027 309.626 292.04V275.66H303.886V269.64H306.826C307.713 269.64 308.343 269.5 308.716 269.22C309.136 268.94 309.44 268.38 309.626 267.54L311.026 260.05H318.166V269.64H332.726V275.66H318.166V292.11C318.166 293.277 318.446 294.047 319.006 294.42C319.566 294.793 320.406 294.98 321.526 294.98H331.396L332.096 300.3C331.116 300.44 329.623 300.603 327.616 300.79C325.61 300.93 323.416 301 321.036 301H318.866ZM347.367 301C343.82 301 341.253 300.183 339.667 298.55C338.08 296.87 337.287 294.583 337.287 291.69C337.287 288.657 338.103 286.323 339.737 284.69C341.417 283.057 343.96 282.24 347.367 282.24H350.937C354.437 282.24 357.587 282.333 360.387 282.52C363.187 282.707 365.497 282.893 367.317 283.08V278.46C367.317 278.04 367.27 277.62 367.177 277.2C367.083 276.733 366.803 276.36 366.337 276.08C365.87 275.8 365.077 275.66 363.957 275.66H360.457C355.37 275.66 351.123 275.753 347.717 275.94C344.31 276.08 342 276.22 340.787 276.36L340.017 271.04C340.017 270.387 341.79 269.99 345.337 269.85C348.883 269.71 354.81 269.64 363.117 269.64H366.617C368.95 269.64 370.747 269.967 372.007 270.62C373.267 271.273 374.153 272.09 374.667 273.07C375.227 274.05 375.553 275.053 375.647 276.08C375.787 277.06 375.857 277.9 375.857 278.6V301H370.117L367.387 299.6C365.427 299.927 363.07 300.253 360.317 300.58C357.563 300.86 354.413 301 350.867 301H347.367ZM349.187 294.98H365.217C366.243 294.98 366.85 294.887 367.037 294.7C367.223 294.513 367.317 293.93 367.317 292.95V287.56H349.187C347.927 287.56 347.04 287.863 346.527 288.47C346.06 289.077 345.827 290.033 345.827 291.34C345.827 292.647 346.107 293.58 346.667 294.14C347.227 294.7 348.067 294.98 349.187 294.98ZM392.472 301C390.139 301 388.342 300.697 387.082 300.09C385.822 299.483 384.912 298.713 384.352 297.78C383.839 296.847 383.512 295.867 383.372 294.84C383.279 293.813 383.232 292.88 383.232 292.04V278.6C383.232 277.9 383.279 277.06 383.372 276.08C383.512 275.053 383.839 274.05 384.352 273.07C384.912 272.09 385.822 271.273 387.082 270.62C388.389 269.967 390.186 269.64 392.472 269.64H402.202C408.036 269.64 412.166 269.803 414.592 270.13C417.066 270.41 418.302 270.713 418.302 271.04L416.902 276.36C415.596 276.267 413.939 276.173 411.932 276.08C409.926 275.94 407.756 275.847 405.422 275.8C403.136 275.707 400.896 275.66 398.702 275.66H395.132C392.892 275.66 391.772 276.593 391.772 278.46V292.18C391.726 294.047 392.846 294.98 395.132 294.98H398.702C401.222 294.98 403.672 294.957 406.052 294.91C408.479 294.817 410.696 294.723 412.702 294.63C414.709 294.49 416.319 294.373 417.532 294.28L420.332 298.83C420.332 300.277 415.736 301 406.542 301H392.472ZM437.401 301C433.855 301 431.428 300.253 430.121 298.76C428.815 297.267 428.161 295.027 428.161 292.04V275.66H422.421V269.64H425.361C426.248 269.64 426.878 269.5 427.251 269.22C427.671 268.94 427.975 268.38 428.161 267.54L429.561 260.05H436.701V269.64H451.261V275.66H436.701V292.11C436.701 293.277 436.981 294.047 437.541 294.42C438.101 294.793 438.941 294.98 440.061 294.98H449.931L450.631 300.3C449.651 300.44 448.158 300.603 446.151 300.79C444.145 300.93 441.951 301 439.571 301H437.401Z" fill="white"/>
<path d="M165.27 404.45V409.7H172.32V413.03H165.27V418.58H173.22V422H161.07V401.03H173.22V404.45H165.27ZM197.677 405.14C199.717 405.14 201.357 405.77 202.597 407.03C203.857 408.27 204.487 410.01 204.487 412.25V422H200.287V412.82C200.287 411.52 199.957 410.53 199.297 409.85C198.637 409.15 197.737 408.8 196.597 408.8C195.457 408.8 194.547 409.15 193.867 409.85C193.207 410.53 192.877 411.52 192.877 412.82V422H188.677V412.82C188.677 411.52 188.347 410.53 187.687 409.85C187.027 409.15 186.127 408.8 184.987 408.8C183.827 408.8 182.907 409.15 182.227 409.85C181.567 410.53 181.237 411.52 181.237 412.82V422H177.037V405.38H181.237V407.39C181.777 406.69 182.467 406.14 183.307 405.74C184.167 405.34 185.107 405.14 186.127 405.14C187.427 405.14 188.587 405.42 189.607 405.98C190.627 406.52 191.417 407.3 191.977 408.32C192.517 407.36 193.297 406.59 194.317 406.01C195.357 405.43 196.477 405.14 197.677 405.14ZM207.392 413.63C207.392 411.95 207.722 410.46 208.382 409.16C209.062 407.86 209.972 406.86 211.112 406.16C212.272 405.46 213.562 405.11 214.982 405.11C216.222 405.11 217.302 405.36 218.222 405.86C219.162 406.36 219.912 406.99 220.472 407.75V405.38H224.702V422H220.472V419.57C219.932 420.35 219.182 421 218.222 421.52C217.282 422.02 216.192 422.27 214.952 422.27C213.552 422.27 212.272 421.91 211.112 421.19C209.972 420.47 209.062 419.46 208.382 418.16C207.722 416.84 207.392 415.33 207.392 413.63ZM220.472 413.69C220.472 412.67 220.272 411.8 219.872 411.08C219.472 410.34 218.932 409.78 218.252 409.4C217.572 409 216.842 408.8 216.062 408.8C215.282 408.8 214.562 408.99 213.902 409.37C213.242 409.75 212.702 410.31 212.282 411.05C211.882 411.77 211.682 412.63 211.682 413.63C211.682 414.63 211.882 415.51 212.282 416.27C212.702 417.01 213.242 417.58 213.902 417.98C214.582 418.38 215.302 418.58 216.062 418.58C216.842 418.58 217.572 418.39 218.252 418.01C218.932 417.61 219.472 417.05 219.872 416.33C220.272 415.59 220.472 414.71 220.472 413.69ZM230.934 403.4C230.194 403.4 229.574 403.17 229.074 402.71C228.594 402.23 228.354 401.64 228.354 400.94C228.354 400.24 228.594 399.66 229.074 399.2C229.574 398.72 230.194 398.48 230.934 398.48C231.674 398.48 232.284 398.72 232.764 399.2C233.264 399.66 233.514 400.24 233.514 400.94C233.514 401.64 233.264 402.23 232.764 402.71C232.284 403.17 231.674 403.4 230.934 403.4ZM233.004 405.38V422H228.804V405.38H233.004ZM241.354 399.8V422H237.154V399.8H241.354ZM254.512 422.21C253.752 422.21 253.122 421.98 252.622 421.52C252.142 421.04 251.902 420.45 251.902 419.75C251.902 419.05 252.142 418.47 252.622 418.01C253.122 417.53 253.752 417.29 254.512 417.29C255.252 417.29 255.862 417.53 256.342 418.01C256.822 418.47 257.062 419.05 257.062 419.75C257.062 420.45 256.822 421.04 256.342 421.52C255.862 421.98 255.252 422.21 254.512 422.21ZM254.512 409.79C253.752 409.79 253.122 409.56 252.622 409.1C252.142 408.62 251.902 408.03 251.902 407.33C251.902 406.63 252.142 406.05 252.622 405.59C253.122 405.11 253.752 404.87 254.512 404.87C255.252 404.87 255.862 405.11 256.342 405.59C256.822 406.05 257.062 406.63 257.062 407.33C257.062 408.03 256.822 408.62 256.342 409.1C255.862 409.56 255.252 409.79 254.512 409.79Z" fill="white"/>
<path d="M183.9 489.06V510H179.7V496.38L174.09 510H170.91L165.27 496.38V510H161.07V489.06H165.84L172.5 504.63L179.16 489.06H183.9ZM203.502 501.33C203.502 501.93 203.462 502.47 203.382 502.95H191.232C191.332 504.15 191.752 505.09 192.492 505.77C193.232 506.45 194.142 506.79 195.222 506.79C196.782 506.79 197.892 506.12 198.552 504.78H203.082C202.602 506.38 201.682 507.7 200.322 508.74C198.962 509.76 197.292 510.27 195.312 510.27C193.712 510.27 192.272 509.92 190.992 509.22C189.732 508.5 188.742 507.49 188.022 506.19C187.322 504.89 186.972 503.39 186.972 501.69C186.972 499.97 187.322 498.46 188.022 497.16C188.722 495.86 189.702 494.86 190.962 494.16C192.222 493.46 193.672 493.11 195.312 493.11C196.892 493.11 198.302 493.45 199.542 494.13C200.802 494.81 201.772 495.78 202.452 497.04C203.152 498.28 203.502 499.71 203.502 501.33ZM199.152 500.13C199.132 499.05 198.742 498.19 197.982 497.55C197.222 496.89 196.292 496.56 195.192 496.56C194.152 496.56 193.272 496.88 192.552 497.52C191.852 498.14 191.422 499.01 191.262 500.13H199.152ZM212.928 510.27C211.568 510.27 210.348 510.03 209.268 509.55C208.188 509.05 207.328 508.38 206.688 507.54C206.068 506.7 205.728 505.77 205.668 504.75H209.898C209.978 505.39 210.288 505.92 210.828 506.34C211.388 506.76 212.078 506.97 212.898 506.97C213.698 506.97 214.318 506.81 214.758 506.49C215.218 506.17 215.448 505.76 215.448 505.26C215.448 504.72 215.168 504.32 214.608 504.06C214.068 503.78 213.198 503.48 211.998 503.16C210.758 502.86 209.738 502.55 208.938 502.23C208.158 501.91 207.478 501.42 206.898 500.76C206.338 500.1 206.058 499.21 206.058 498.09C206.058 497.17 206.318 496.33 206.838 495.57C207.378 494.81 208.138 494.21 209.118 493.77C210.118 493.33 211.288 493.11 212.628 493.11C214.608 493.11 216.188 493.61 217.368 494.61C218.548 495.59 219.198 496.92 219.318 498.6H215.298C215.238 497.94 214.958 497.42 214.458 497.04C213.978 496.64 213.328 496.44 212.508 496.44C211.748 496.44 211.158 496.58 210.738 496.86C210.338 497.14 210.138 497.53 210.138 498.03C210.138 498.59 210.418 499.02 210.978 499.32C211.538 499.6 212.408 499.89 213.588 500.19C214.788 500.49 215.778 500.8 216.558 501.12C217.338 501.44 218.008 501.94 218.568 502.62C219.148 503.28 219.448 504.16 219.468 505.26C219.468 506.22 219.198 507.08 218.658 507.84C218.138 508.6 217.378 509.2 216.378 509.64C215.398 510.06 214.248 510.27 212.928 510.27ZM229.276 510.27C227.916 510.27 226.696 510.03 225.616 509.55C224.536 509.05 223.676 508.38 223.036 507.54C222.416 506.7 222.076 505.77 222.016 504.75H226.246C226.326 505.39 226.636 505.92 227.176 506.34C227.736 506.76 228.426 506.97 229.246 506.97C230.046 506.97 230.666 506.81 231.106 506.49C231.566 506.17 231.796 505.76 231.796 505.26C231.796 504.72 231.516 504.32 230.956 504.06C230.416 503.78 229.546 503.48 228.346 503.16C227.106 502.86 226.086 502.55 225.286 502.23C224.506 501.91 223.826 501.42 223.246 500.76C222.686 500.1 222.406 499.21 222.406 498.09C222.406 497.17 222.666 496.33 223.186 495.57C223.726 494.81 224.486 494.21 225.466 493.77C226.466 493.33 227.636 493.11 228.976 493.11C230.956 493.11 232.536 493.61 233.716 494.61C234.896 495.59 235.546 496.92 235.666 498.6H231.646C231.586 497.94 231.306 497.42 230.806 497.04C230.326 496.64 229.676 496.44 228.856 496.44C228.096 496.44 227.506 496.58 227.086 496.86C226.686 497.14 226.486 497.53 226.486 498.03C226.486 498.59 226.766 499.02 227.326 499.32C227.886 499.6 228.756 499.89 229.936 500.19C231.136 500.49 232.126 500.8 232.906 501.12C233.686 501.44 234.356 501.94 234.916 502.62C235.496 503.28 235.796 504.16 235.816 505.26C235.816 506.22 235.546 507.08 235.006 507.84C234.486 508.6 233.726 509.2 232.726 509.64C231.746 510.06 230.596 510.27 229.276 510.27ZM238.183 501.63C238.183 499.95 238.513 498.46 239.173 497.16C239.853 495.86 240.763 494.86 241.903 494.16C243.063 493.46 244.353 493.11 245.773 493.11C247.013 493.11 248.093 493.36 249.013 493.86C249.953 494.36 250.703 494.99 251.263 495.75V493.38H255.493V510H251.263V507.57C250.723 508.35 249.973 509 249.013 509.52C248.073 510.02 246.983 510.27 245.743 510.27C244.343 510.27 243.063 509.91 241.903 509.19C240.763 508.47 239.853 507.46 239.173 506.16C238.513 504.84 238.183 503.33 238.183 501.63ZM251.263 501.69C251.263 500.67 251.063 499.8 250.663 499.08C250.263 498.34 249.723 497.78 249.043 497.4C248.363 497 247.633 496.8 246.853 496.8C246.073 496.8 245.353 496.99 244.693 497.37C244.033 497.75 243.493 498.31 243.073 499.05C242.673 499.77 242.473 500.63 242.473 501.63C242.473 502.63 242.673 503.51 243.073 504.27C243.493 505.01 244.033 505.58 244.693 505.98C245.373 506.38 246.093 506.58 246.853 506.58C247.633 506.58 248.363 506.39 249.043 506.01C249.723 505.61 250.263 505.05 250.663 504.33C251.063 503.59 251.263 502.71 251.263 501.69ZM266.105 493.11C267.345 493.11 268.435 493.36 269.375 493.86C270.315 494.34 271.055 494.97 271.595 495.75V493.38H275.825V510.12C275.825 511.66 275.515 513.03 274.895 514.23C274.275 515.45 273.345 516.41 272.105 517.11C270.865 517.83 269.365 518.19 267.605 518.19C265.245 518.19 263.305 517.64 261.785 516.54C260.285 515.44 259.435 513.94 259.235 512.04H263.405C263.625 512.8 264.095 513.4 264.815 513.84C265.555 514.3 266.445 514.53 267.485 514.53C268.705 514.53 269.695 514.16 270.455 513.42C271.215 512.7 271.595 511.6 271.595 510.12V507.54C271.055 508.32 270.305 508.97 269.345 509.49C268.405 510.01 267.325 510.27 266.105 510.27C264.705 510.27 263.425 509.91 262.265 509.19C261.105 508.47 260.185 507.46 259.505 506.16C258.845 504.84 258.515 503.33 258.515 501.63C258.515 499.95 258.845 498.46 259.505 497.16C260.185 495.86 261.095 494.86 262.235 494.16C263.395 493.46 264.685 493.11 266.105 493.11ZM271.595 501.69C271.595 500.67 271.395 499.8 270.995 499.08C270.595 498.34 270.055 497.78 269.375 497.4C268.695 497 267.965 496.8 267.185 496.8C266.405 496.8 265.685 496.99 265.025 497.37C264.365 497.75 263.825 498.31 263.405 499.05C263.005 499.77 262.805 500.63 262.805 501.63C262.805 502.63 263.005 503.51 263.405 504.27C263.825 505.01 264.365 505.58 265.025 505.98C265.705 506.38 266.425 506.58 267.185 506.58C267.965 506.58 268.695 506.39 269.375 506.01C270.055 505.61 270.595 505.05 270.995 504.33C271.395 503.59 271.595 502.71 271.595 501.69ZM295.377 501.33C295.377 501.93 295.337 502.47 295.257 502.95H283.107C283.207 504.15 283.627 505.09 284.367 505.77C285.107 506.45 286.017 506.79 287.097 506.79C288.657 506.79 289.767 506.12 290.427 504.78H294.957C294.477 506.38 293.557 507.7 292.197 508.74C290.837 509.76 289.167 510.27 287.187 510.27C285.587 510.27 284.147 509.92 282.867 509.22C281.607 508.5 280.617 507.49 279.897 506.19C279.197 504.89 278.847 503.39 278.847 501.69C278.847 499.97 279.197 498.46 279.897 497.16C280.597 495.86 281.577 494.86 282.837 494.16C284.097 493.46 285.547 493.11 287.187 493.11C288.767 493.11 290.177 493.45 291.417 494.13C292.677 494.81 293.647 495.78 294.327 497.04C295.027 498.28 295.377 499.71 295.377 501.33ZM291.027 500.13C291.007 499.05 290.617 498.19 289.857 497.55C289.097 496.89 288.167 496.56 287.067 496.56C286.027 496.56 285.147 496.88 284.427 497.52C283.727 498.14 283.297 499.01 283.137 500.13H291.027ZM307.451 510.21C306.691 510.21 306.061 509.98 305.561 509.52C305.081 509.04 304.841 508.45 304.841 507.75C304.841 507.05 305.081 506.47 305.561 506.01C306.061 505.53 306.691 505.29 307.451 505.29C308.191 505.29 308.801 505.53 309.281 506.01C309.761 506.47 310.001 507.05 310.001 507.75C310.001 508.45 309.761 509.04 309.281 509.52C308.801 509.98 308.191 510.21 307.451 510.21ZM307.451 497.79C306.691 497.79 306.061 497.56 305.561 497.1C305.081 496.62 304.841 496.03 304.841 495.33C304.841 494.63 305.081 494.05 305.561 493.59C306.061 493.11 306.691 492.87 307.451 492.87C308.191 492.87 308.801 493.11 309.281 493.59C309.761 494.05 310.001 494.63 310.001 495.33C310.001 496.03 309.761 496.62 309.281 497.1C308.801 497.56 308.191 497.79 307.451 497.79Z" fill="white"/>
<g filter="url(#filter3_d_20_141)">
<rect x="320" y="382" width="480" height="60" rx="10" fill="white"/>
<rect x="321" y="383" width="478" height="58" rx="9" stroke="#0B0A0A" stroke-width="2"/>
</g>
<g filter="url(#filter4_d_20_141)">
<rect x="320" y="470" width="480" height="300" rx="10" fill="white"/>
<rect x="321" y="471" width="478" height="298" rx="9" stroke="#0B0A0A" stroke-width="2"/>
</g>
</g>
<defs>
<filter id="filter0_d_20_141" x="-75" y="681" width="308" height="308" filterUnits="userSpaceOnUse" color-interpolation-filters="sRGB">
<feFlood flood-opacity="0" result="BackgroundImageFix"/>
<feColorMatrix in="SourceAlpha" type="matrix" values="0 0 0 0 0 0 0 0 0 0 0 0 0 0 0 0 0 0 127 0" result="hardAlpha"/>
<feOffset dy="4"/>
<feGaussianBlur stdDeviation="2"/>
<feComposite in2="hardAlpha" operator="out"/>
<feColorMatrix type="matrix" values="0 0 0 0 0 0 0 0 0 0 0 0 0 0 0 0 0 0 0.25 0"/>
<feBlend mode="normal" in2="BackgroundImageFix" result="effect1_dropShadow_20_141"/>
<feBlend mode="normal" in="SourceGraphic" in2="effect1_dropShadow_20_141" result="shape"/>
</filter>
<filter id="filter1_d_20_141" x="1192" y="924" width="158" height="158" filterUnits="userSpaceOnUse" color-interpolation-filters="sRGB">
<feFlood flood-opacity="0" result="BackgroundImageFix"/>
<feColorMatrix in="SourceAlpha" type="matrix" values="0 0 0 0 0 0 0 0 0 0 0 0 0 0 0 0 0 0 127 0" result="hardAlpha"/>
<feOffset dy="4"/>
<feGaussianBlur stdDeviation="2"/>
<feComposite in2="hardAlpha" operator="out"/>
<feColorMatrix type="matrix" values="0 0 0 0 0 0 0 0 0 0 0 0 0 0 0 0 0 0 0.25 0"/>
<feBlend mode="normal" in2="BackgroundImageFix" result="effect1_dropShadow_20_141"/>
<feBlend mode="normal" in="SourceGraphic" in2="effect1_dropShadow_20_141" result="shape"/>
</filter>
<filter id="filter2_d_20_141" x="842" y="-89" width="708" height="708" filterUnits="userSpaceOnUse" color-interpolation-filters="sRGB">
<feFlood flood-opacity="0" result="BackgroundImageFix"/>
<feColorMatrix in="SourceAlpha" type="matrix" values="0 0 0 0 0 0 0 0 0 0 0 0 0 0 0 0 0 0 127 0" result="hardAlpha"/>
<feOffset dy="4"/>
<feGaussianBlur stdDeviation="2"/>
<feComposite in2="hardAlpha" operator="out"/>
<feColorMatrix type="matrix" values="0 0 0 0 0 0 0 0 0 0 0 0 0 0 0 0 0 0 0.25 0"/>
<feBlend mode="normal" in2="BackgroundImageFix" result="effect1_dropShadow_20_141"/>
<feBlend mode="normal" in="SourceGraphic" in2="effect1_dropShadow_20_141" result="shape"/>
</filter>
<filter id="filter3_d_20_141" x="316" y="382" width="488" height="68" filterUnits="userSpaceOnUse" color-interpolation-filters="sRGB">
<feFlood flood-opacity="0" result="BackgroundImageFix"/>
<feColorMatrix in="SourceAlpha" type="matrix" values="0 0 0 0 0 0 0 0 0 0 0 0 0 0 0 0 0 0 127 0" result="hardAlpha"/>
<feOffset dy="4"/>
<feGaussianBlur stdDeviation="2"/>
<feComposite in2="hardAlpha" operator="out"/>
<feColorMatrix type="matrix" values="0 0 0 0 0 0 0 0 0 0 0 0 0 0 0 0 0 0 0.4 0"/>
<feBlend mode="normal" in2="BackgroundImageFix" result="effect1_dropShadow_20_141"/>
<feBlend mode="normal" in="SourceGraphic" in2="effect1_dropShadow_20_141" result="shape"/>
</filter>
<filter id="filter4_d_20_141" x="316" y="470" width="488" height="308" filterUnits="userSpaceOnUse" color-interpolation-filters="sRGB">
<feFlood flood-opacity="0" result="BackgroundImageFix"/>
<feColorMatrix in="SourceAlpha" type="matrix" values="0 0 0 0 0 0 0 0 0 0 0 0 0 0 0 0 0 0 127 0" result="hardAlpha"/>
<feOffset dy="4"/>
<feGaussianBlur stdDeviation="2"/>
<feComposite in2="hardAlpha" operator="out"/>
<feColorMatrix type="matrix" values="0 0 0 0 0 0 0 0 0 0 0 0 0 0 0 0 0 0 0.4 0"/>
<feBlend mode="normal" in2="BackgroundImageFix" result="effect1_dropShadow_20_141"/>
<feBlend mode="normal" in="SourceGraphic" in2="effect1_dropShadow_20_141" result="shape"/>
</filter>
<clipPath id="clip0_20_141">
<rect width="1440" height="1024" fill="white"/>
</clipPath>
</defs>
</svg>
