<svg width="1440" height="1024" viewBox="0 0 1440 1024" fill="none" xmlns="http://www.w3.org/2000/svg">
<g clip-path="url(#clip0_1_60)">
<rect width="1440" height="1024" fill="#7A7A7A"/>
<g filter="url(#filter0_d_1_60)">
<circle cx="79" cy="831" r="150" fill="#D9D9D9" fill-opacity="0.3" shape-rendering="crispEdges"/>
</g>
<g filter="url(#filter1_d_1_60)">
<circle cx="1271" cy="999" r="75" fill="#D9D9D9" fill-opacity="0.3" shape-rendering="crispEdges"/>
</g>
<g filter="url(#filter2_d_1_60)">
<circle cx="1196" cy="261" r="350" fill="#D9D9D9" fill-opacity="0.3" shape-rendering="crispEdges"/>
</g>
<path d="M163.84 83V54.776H170.176V83H163.84ZM177.184 58.904C176.512 59.096 176.112 59.016 175.984 58.664C175.888 58.28 175.952 57.896 176.176 57.512C176.368 57.256 176.624 56.84 176.944 56.264C177.296 55.688 177.632 55.048 177.952 54.344C178.272 53.608 178.48 52.872 178.576 52.136C177.744 52.008 177.136 51.704 176.752 51.224C176.368 50.744 176.176 50.008 176.176 49.016C176.176 47.896 176.432 47.112 176.944 46.664C177.488 46.184 178.368 45.944 179.584 45.944C180.896 45.944 181.872 46.232 182.512 46.808C183.184 47.352 183.52 48.264 183.52 49.544C183.52 50.472 183.312 51.448 182.896 52.472C182.512 53.496 182 54.472 181.36 55.4C180.72 56.296 180.032 57.064 179.296 57.704C178.56 58.312 177.856 58.712 177.184 58.904ZM190.255 83V61.496H194.191L195.391 62.072C196.319 61.912 197.455 61.784 198.799 61.688C200.143 61.56 201.743 61.496 203.599 61.496H205.999C206.927 61.496 207.823 61.624 208.687 61.88C209.551 62.104 210.191 62.44 210.607 62.888C211.439 62.472 212.591 62.136 214.063 61.88C215.535 61.624 217.455 61.496 219.823 61.496H222.223C223.823 61.496 225.055 61.72 225.919 62.168C226.783 62.616 227.391 63.176 227.743 63.848C228.127 64.52 228.351 65.208 228.415 65.912C228.511 66.584 228.559 67.16 228.559 67.64V83H222.703V67.544C222.703 66.264 221.935 65.624 220.399 65.624H213.679C213.167 65.624 212.815 65.688 212.623 65.816C212.431 65.944 212.335 66.232 212.335 66.68V83H206.479V67.544C206.479 66.264 205.711 65.624 204.175 65.624H197.551C196.943 65.624 196.543 65.688 196.351 65.816C196.191 65.912 196.111 66.2 196.111 66.68V83H190.255ZM255.622 83L242.23 54.824H248.95L257.974 74.264L259.27 77.72H259.702L260.95 74.264L270.07 54.824H276.598L275.83 57.704L263.302 83H255.622ZM282.444 58.472C281.26 58.472 280.396 58.232 279.852 57.752C279.308 57.272 279.036 56.472 279.036 55.352C279.036 54.2 279.292 53.4 279.804 52.952C280.348 52.472 281.228 52.232 282.444 52.232C283.66 52.232 284.54 52.472 285.084 52.952C285.628 53.4 285.9 54.2 285.9 55.352C285.9 56.44 285.628 57.24 285.084 57.752C284.54 58.232 283.66 58.472 282.444 58.472ZM279.516 83V61.496H285.372V83H279.516ZM314.638 83.48C313.294 83.48 312.142 83.32 311.182 83C310.254 82.68 309.262 81.992 308.206 80.936C308.11 80.84 307.854 80.584 307.438 80.168C307.022 79.752 306.558 79.288 306.046 78.776C305.566 78.264 305.118 77.8 304.702 77.384C304.286 76.968 304.014 76.696 303.886 76.568C303.086 75.768 302.318 75.144 301.582 74.696C300.878 74.248 299.998 74.024 298.942 74.024C298.238 74.024 297.822 74.088 297.694 74.216C297.566 74.344 297.502 74.776 297.502 75.512V83H291.646V52.616H297.502V69.896H299.038C299.614 69.896 300.126 69.672 300.574 69.224C300.862 68.936 301.406 68.36 302.206 67.496C303.006 66.632 303.902 65.656 304.894 64.568C305.918 63.48 306.846 62.472 307.678 61.544H314.734L313.966 63.032C313.23 63.8 312.43 64.616 311.566 65.48C310.702 66.312 309.854 67.128 309.022 67.928C308.222 68.696 307.486 69.384 306.814 69.992C306.142 70.568 305.63 70.952 305.278 71.144C306.238 71.656 307.102 72.248 307.87 72.92C308.638 73.56 309.47 74.296 310.366 75.128C311.262 75.928 312.334 76.84 313.582 77.864C314.702 78.76 315.742 79.288 316.702 79.448C317.662 79.576 318.238 79.64 318.43 79.64L317.566 83C317.246 83.096 316.814 83.192 316.27 83.288C315.726 83.416 315.182 83.48 314.638 83.48ZM327.51 83C325.078 83 323.318 82.44 322.23 81.32C321.142 80.168 320.598 78.6 320.598 76.616C320.598 74.536 321.158 72.936 322.278 71.816C323.43 70.696 325.174 70.136 327.51 70.136H329.958C332.358 70.136 334.518 70.2 336.438 70.328C338.358 70.456 339.942 70.584 341.19 70.712V67.544C341.19 67.256 341.158 66.968 341.094 66.68C341.03 66.36 340.838 66.104 340.518 65.912C340.198 65.72 339.654 65.624 338.886 65.624H336.486C332.998 65.624 330.086 65.688 327.75 65.816C325.414 65.912 323.83 66.008 322.998 66.104L322.47 62.456C322.47 62.008 323.686 61.736 326.118 61.64C328.55 61.544 332.614 61.496 338.31 61.496H340.71C342.31 61.496 343.542 61.72 344.406 62.168C345.27 62.616 345.878 63.176 346.23 63.848C346.614 64.52 346.838 65.208 346.902 65.912C346.998 66.584 347.046 67.16 347.046 67.64V83H343.109L341.238 82.04C339.894 82.264 338.278 82.488 336.39 82.712C334.502 82.904 332.342 83 329.91 83H327.51ZM328.758 78.872H339.75C340.454 78.872 340.87 78.808 340.998 78.68C341.126 78.552 341.19 78.152 341.19 77.48V73.784H328.758C327.894 73.784 327.286 73.992 326.934 74.408C326.614 74.824 326.454 75.48 326.454 76.376C326.454 77.272 326.646 77.912 327.03 78.296C327.414 78.68 327.99 78.872 328.758 78.872ZM358.007 83C355.863 83 354.343 82.888 353.447 82.664C352.551 82.44 352.103 82.216 352.103 81.992L353.543 78.392C354.471 78.488 356.167 78.6 358.631 78.728C361.127 78.824 364.199 78.872 367.847 78.872H370.247C371.047 78.872 371.543 78.664 371.735 78.248C371.959 77.8 372.071 77.208 372.071 76.472C372.071 75.736 371.943 75.144 371.687 74.696C371.463 74.248 370.983 74.024 370.247 74.024H358.439C356.199 74.024 354.583 73.608 353.591 72.776C352.599 71.912 352.103 70.632 352.103 68.936V67.016C352.103 66.568 352.151 66.04 352.247 65.432C352.343 64.824 352.583 64.216 352.967 63.608C353.351 63 353.975 62.504 354.839 62.12C355.703 61.704 356.903 61.496 358.439 61.496H371.687C373.607 61.496 374.967 61.608 375.767 61.832C376.567 62.056 376.967 62.28 376.967 62.504L376.487 66.104C375.559 66.008 373.847 65.912 371.351 65.816C368.855 65.688 365.799 65.624 362.183 65.624H359.783C358.983 65.624 358.471 65.848 358.247 66.296C358.055 66.712 357.959 67.208 357.959 67.784C357.959 68.392 358.055 68.904 358.247 69.32C358.471 69.704 358.983 69.896 359.783 69.896H371.591C373.767 69.896 375.367 70.344 376.391 71.24C377.415 72.136 377.927 73.272 377.927 74.648V77.48C377.927 78.056 377.879 78.664 377.783 79.304C377.719 79.944 377.495 80.552 377.111 81.128C376.727 81.672 376.103 82.12 375.239 82.472C374.375 82.824 373.159 83 371.591 83H358.007Z" fill="white"/>
<path d="M469.91 75.01H461.57L460.19 79H455.78L463.31 58.03H468.2L475.73 79H471.29L469.91 75.01ZM468.77 71.65L465.74 62.89L462.71 71.65H468.77ZM482.745 64.81C483.285 64.01 484.025 63.36 484.965 62.86C485.925 62.36 487.015 62.11 488.235 62.11C489.655 62.11 490.935 62.46 492.075 63.16C493.235 63.86 494.145 64.86 494.805 66.16C495.485 67.44 495.825 68.93 495.825 70.63C495.825 72.33 495.485 73.84 494.805 75.16C494.145 76.46 493.235 77.47 492.075 78.19C490.935 78.91 489.655 79.27 488.235 79.27C486.995 79.27 485.905 79.03 484.965 78.55C484.045 78.05 483.305 77.41 482.745 76.63V79H478.545V56.8H482.745V64.81ZM491.535 70.63C491.535 69.63 491.325 68.77 490.905 68.05C490.505 67.31 489.965 66.75 489.285 66.37C488.625 65.99 487.905 65.8 487.125 65.8C486.365 65.8 485.645 66 484.965 66.4C484.305 66.78 483.765 67.34 483.345 68.08C482.945 68.82 482.745 69.69 482.745 70.69C482.745 71.69 482.945 72.56 483.345 73.3C483.765 74.04 484.305 74.61 484.965 75.01C485.645 75.39 486.365 75.58 487.125 75.58C487.905 75.58 488.625 75.38 489.285 74.98C489.965 74.58 490.505 74.01 490.905 73.27C491.325 72.53 491.535 71.65 491.535 70.63ZM506.257 79.27C504.657 79.27 503.217 78.92 501.937 78.22C500.657 77.5 499.647 76.49 498.907 75.19C498.187 73.89 497.827 72.39 497.827 70.69C497.827 68.99 498.197 67.49 498.937 66.19C499.697 64.89 500.727 63.89 502.027 63.19C503.327 62.47 504.777 62.11 506.377 62.11C507.977 62.11 509.427 62.47 510.727 63.19C512.027 63.89 513.047 64.89 513.787 66.19C514.547 67.49 514.927 68.99 514.927 70.69C514.927 72.39 514.537 73.89 513.757 75.19C512.997 76.49 511.957 77.5 510.637 78.22C509.337 78.92 507.877 79.27 506.257 79.27ZM506.257 75.61C507.017 75.61 507.727 75.43 508.387 75.07C509.067 74.69 509.607 74.13 510.007 73.39C510.407 72.65 510.607 71.75 510.607 70.69C510.607 69.11 510.187 67.9 509.347 67.06C508.527 66.2 507.517 65.77 506.317 65.77C505.117 65.77 504.107 66.2 503.287 67.06C502.487 67.9 502.087 69.11 502.087 70.69C502.087 72.27 502.477 73.49 503.257 74.35C504.057 75.19 505.057 75.61 506.257 75.61ZM533.698 62.38V79H529.468V76.9C528.928 77.62 528.218 78.19 527.338 78.61C526.478 79.01 525.538 79.21 524.518 79.21C523.218 79.21 522.068 78.94 521.068 78.4C520.068 77.84 519.278 77.03 518.698 75.97C518.138 74.89 517.858 73.61 517.858 72.13V62.38H522.058V71.53C522.058 72.85 522.388 73.87 523.048 74.59C523.708 75.29 524.608 75.64 525.748 75.64C526.908 75.64 527.818 75.29 528.478 74.59C529.138 73.87 529.468 72.85 529.468 71.53V62.38H533.698ZM542.731 65.83V73.87C542.731 74.43 542.861 74.84 543.121 75.1C543.401 75.34 543.861 75.46 544.501 75.46H546.451V79H543.811C540.271 79 538.501 77.28 538.501 73.84V65.83H536.521V62.38H538.501V58.27H542.731V62.38H546.451V65.83H542.731Z" fill="white"/>
<path d="M589.27 61.45V66.7H596.32V70.03H589.27V75.58H597.22V79H585.07V58.03H597.22V61.45H589.27ZM610.217 79L606.797 73.84L603.767 79H599.267L604.697 70.66L599.207 62.38H603.947L607.337 67.51L610.397 62.38H614.897L609.437 70.66L614.957 79H610.217ZM621.438 64.78C621.978 64.02 622.718 63.39 623.658 62.89C624.618 62.37 625.708 62.11 626.928 62.11C628.348 62.11 629.628 62.46 630.768 63.16C631.928 63.86 632.838 64.86 633.498 66.16C634.178 67.44 634.518 68.93 634.518 70.63C634.518 72.33 634.178 73.84 633.498 75.16C632.838 76.46 631.928 77.47 630.768 78.19C629.628 78.91 628.348 79.27 626.928 79.27C625.708 79.27 624.628 79.02 623.688 78.52C622.768 78.02 622.018 77.39 621.438 76.63V86.92H617.238V62.38H621.438V64.78ZM630.228 70.63C630.228 69.63 630.018 68.77 629.598 68.05C629.198 67.31 628.658 66.75 627.978 66.37C627.318 65.99 626.598 65.8 625.818 65.8C625.058 65.8 624.338 66 623.658 66.4C622.998 66.78 622.458 67.34 622.038 68.08C621.638 68.82 621.438 69.69 621.438 70.69C621.438 71.69 621.638 72.56 622.038 73.3C622.458 74.04 622.998 74.61 623.658 75.01C624.338 75.39 625.058 75.58 625.818 75.58C626.598 75.58 627.318 75.38 627.978 74.98C628.658 74.58 629.198 74.01 629.598 73.27C630.018 72.53 630.228 71.65 630.228 70.63ZM653.02 70.33C653.02 70.93 652.98 71.47 652.9 71.95H640.75C640.85 73.15 641.27 74.09 642.01 74.77C642.75 75.45 643.66 75.79 644.74 75.79C646.3 75.79 647.41 75.12 648.07 73.78H652.6C652.12 75.38 651.2 76.7 649.84 77.74C648.48 78.76 646.81 79.27 644.83 79.27C643.23 79.27 641.79 78.92 640.51 78.22C639.25 77.5 638.26 76.49 637.54 75.19C636.84 73.89 636.49 72.39 636.49 70.69C636.49 68.97 636.84 67.46 637.54 66.16C638.24 64.86 639.22 63.86 640.48 63.16C641.74 62.46 643.19 62.11 644.83 62.11C646.41 62.11 647.82 62.45 649.06 63.13C650.32 63.81 651.29 64.78 651.97 66.04C652.67 67.28 653.02 68.71 653.02 70.33ZM648.67 69.13C648.65 68.05 648.26 67.19 647.5 66.55C646.74 65.89 645.81 65.56 644.71 65.56C643.67 65.56 642.79 65.88 642.07 66.52C641.37 67.14 640.94 68.01 640.78 69.13H648.67ZM660.286 64.96C660.826 64.08 661.526 63.39 662.386 62.89C663.266 62.39 664.266 62.14 665.386 62.14V66.55H664.276C662.956 66.55 661.956 66.86 661.276 67.48C660.616 68.1 660.286 69.18 660.286 70.72V79H656.086V62.38H660.286V64.96ZM670.345 60.4C669.605 60.4 668.985 60.17 668.485 59.71C668.005 59.23 667.765 58.64 667.765 57.94C667.765 57.24 668.005 56.66 668.485 56.2C668.985 55.72 669.605 55.48 670.345 55.48C671.085 55.48 671.695 55.72 672.175 56.2C672.675 56.66 672.925 57.24 672.925 57.94C672.925 58.64 672.675 59.23 672.175 59.71C671.695 60.17 671.085 60.4 670.345 60.4ZM672.415 62.38V79H668.215V62.38H672.415ZM692.014 70.33C692.014 70.93 691.974 71.47 691.894 71.95H679.744C679.844 73.15 680.264 74.09 681.004 74.77C681.744 75.45 682.654 75.79 683.734 75.79C685.294 75.79 686.404 75.12 687.064 73.78H691.594C691.114 75.38 690.194 76.7 688.834 77.74C687.474 78.76 685.804 79.27 683.824 79.27C682.224 79.27 680.784 78.92 679.504 78.22C678.244 77.5 677.254 76.49 676.534 75.19C675.834 73.89 675.484 72.39 675.484 70.69C675.484 68.97 675.834 67.46 676.534 66.16C677.234 64.86 678.214 63.86 679.474 63.16C680.734 62.46 682.184 62.11 683.824 62.11C685.404 62.11 686.814 62.45 688.054 63.13C689.314 63.81 690.284 64.78 690.964 66.04C691.664 67.28 692.014 68.71 692.014 70.33ZM687.664 69.13C687.644 68.05 687.254 67.19 686.494 66.55C685.734 65.89 684.804 65.56 683.704 65.56C682.664 65.56 681.784 65.88 681.064 66.52C680.364 67.14 679.934 68.01 679.774 69.13H687.664ZM704.29 62.14C706.27 62.14 707.87 62.77 709.09 64.03C710.31 65.27 710.92 67.01 710.92 69.25V79H706.72V69.82C706.72 68.5 706.39 67.49 705.73 66.79C705.07 66.07 704.17 65.71 703.03 65.71C701.87 65.71 700.95 66.07 700.27 66.79C699.61 67.49 699.28 68.5 699.28 69.82V79H695.08V62.38H699.28V64.45C699.84 63.73 700.55 63.17 701.41 62.77C702.29 62.35 703.25 62.14 704.29 62.14ZM713.834 70.69C713.834 68.97 714.184 67.47 714.884 66.19C715.584 64.89 716.554 63.89 717.794 63.19C719.034 62.47 720.454 62.11 722.054 62.11C724.114 62.11 725.814 62.63 727.154 63.67C728.514 64.69 729.424 66.13 729.884 67.99H725.354C725.114 67.27 724.704 66.71 724.124 66.31C723.564 65.89 722.864 65.68 722.024 65.68C720.824 65.68 719.874 66.12 719.174 67C718.474 67.86 718.124 69.09 718.124 70.69C718.124 72.27 718.474 73.5 719.174 74.38C719.874 75.24 720.824 75.67 722.024 75.67C723.724 75.67 724.834 74.91 725.354 73.39H729.884C729.424 75.19 728.514 76.62 727.154 77.68C725.794 78.74 724.094 79.27 722.054 79.27C720.454 79.27 719.034 78.92 717.794 78.22C716.554 77.5 715.584 76.5 714.884 75.22C714.184 73.92 713.834 72.41 713.834 70.69ZM748.411 70.33C748.411 70.93 748.371 71.47 748.291 71.95H736.141C736.241 73.15 736.661 74.09 737.401 74.77C738.141 75.45 739.051 75.79 740.131 75.79C741.691 75.79 742.801 75.12 743.461 73.78H747.991C747.511 75.38 746.591 76.7 745.231 77.74C743.871 78.76 742.201 79.27 740.221 79.27C738.621 79.27 737.181 78.92 735.901 78.22C734.641 77.5 733.651 76.49 732.931 75.19C732.231 73.89 731.881 72.39 731.881 70.69C731.881 68.97 732.231 67.46 732.931 66.16C733.631 64.86 734.611 63.86 735.871 63.16C737.131 62.46 738.581 62.11 740.221 62.11C741.801 62.11 743.211 62.45 744.451 63.13C745.711 63.81 746.681 64.78 747.361 66.04C748.061 67.28 748.411 68.71 748.411 70.33ZM744.061 69.13C744.041 68.05 743.651 67.19 742.891 66.55C742.131 65.89 741.201 65.56 740.101 65.56C739.061 65.56 738.181 65.88 737.461 66.52C736.761 67.14 736.331 68.01 736.171 69.13H744.061Z" fill="white"/>
<path d="M791.27 61.45V66.7H798.32V70.03H791.27V75.58H799.22V79H787.07V58.03H799.22V61.45H791.27ZM801.957 70.63C801.957 68.95 802.287 67.46 802.947 66.16C803.627 64.86 804.547 63.86 805.707 63.16C806.867 62.46 808.157 62.11 809.577 62.11C810.657 62.11 811.687 62.35 812.667 62.83C813.647 63.29 814.427 63.91 815.007 64.69V56.8H819.267V79H815.007V76.54C814.487 77.36 813.757 78.02 812.817 78.52C811.877 79.02 810.787 79.27 809.547 79.27C808.147 79.27 806.867 78.91 805.707 78.19C804.547 77.47 803.627 76.46 802.947 75.16C802.287 73.84 801.957 72.33 801.957 70.63ZM815.037 70.69C815.037 69.67 814.837 68.8 814.437 68.08C814.037 67.34 813.497 66.78 812.817 66.4C812.137 66 811.407 65.8 810.627 65.8C809.847 65.8 809.127 65.99 808.467 66.37C807.807 66.75 807.267 67.31 806.847 68.05C806.447 68.77 806.247 69.63 806.247 70.63C806.247 71.63 806.447 72.51 806.847 73.27C807.267 74.01 807.807 74.58 808.467 74.98C809.147 75.38 809.867 75.58 810.627 75.58C811.407 75.58 812.137 75.39 812.817 75.01C813.497 74.61 814.037 74.05 814.437 73.33C814.837 72.59 815.037 71.71 815.037 70.69ZM839.059 62.38V79H834.829V76.9C834.289 77.62 833.579 78.19 832.699 78.61C831.839 79.01 830.899 79.21 829.879 79.21C828.579 79.21 827.429 78.94 826.429 78.4C825.429 77.84 824.639 77.03 824.059 75.97C823.499 74.89 823.219 73.61 823.219 72.13V62.38H827.419V71.53C827.419 72.85 827.749 73.87 828.409 74.59C829.069 75.29 829.969 75.64 831.109 75.64C832.269 75.64 833.179 75.29 833.839 74.59C834.499 73.87 834.829 72.85 834.829 71.53V62.38H839.059ZM842.123 70.69C842.123 68.97 842.473 67.47 843.173 66.19C843.873 64.89 844.843 63.89 846.083 63.19C847.323 62.47 848.743 62.11 850.343 62.11C852.403 62.11 854.103 62.63 855.443 63.67C856.803 64.69 857.713 66.13 858.173 67.99H853.643C853.403 67.27 852.993 66.71 852.413 66.31C851.853 65.89 851.153 65.68 850.313 65.68C849.113 65.68 848.163 66.12 847.463 67C846.763 67.86 846.413 69.09 846.413 70.69C846.413 72.27 846.763 73.5 847.463 74.38C848.163 75.24 849.113 75.67 850.313 75.67C852.013 75.67 853.123 74.91 853.643 73.39H858.173C857.713 75.19 856.803 76.62 855.443 77.68C854.083 78.74 852.383 79.27 850.343 79.27C848.743 79.27 847.323 78.92 846.083 78.22C844.843 77.5 843.873 76.5 843.173 75.22C842.473 73.92 842.123 72.41 842.123 70.69ZM860.17 70.63C860.17 68.95 860.5 67.46 861.16 66.16C861.84 64.86 862.75 63.86 863.89 63.16C865.05 62.46 866.34 62.11 867.76 62.11C869 62.11 870.08 62.36 871 62.86C871.94 63.36 872.69 63.99 873.25 64.75V62.38H877.48V79H873.25V76.57C872.71 77.35 871.96 78 871 78.52C870.06 79.02 868.97 79.27 867.73 79.27C866.33 79.27 865.05 78.91 863.89 78.19C862.75 77.47 861.84 76.46 861.16 75.16C860.5 73.84 860.17 72.33 860.17 70.63ZM873.25 70.69C873.25 69.67 873.05 68.8 872.65 68.08C872.25 67.34 871.71 66.78 871.03 66.4C870.35 66 869.62 65.8 868.84 65.8C868.06 65.8 867.34 65.99 866.68 66.37C866.02 66.75 865.48 67.31 865.06 68.05C864.66 68.77 864.46 69.63 864.46 70.63C864.46 71.63 864.66 72.51 865.06 73.27C865.48 74.01 866.02 74.58 866.68 74.98C867.36 75.38 868.08 75.58 868.84 75.58C869.62 75.58 870.35 75.39 871.03 75.01C871.71 74.61 872.25 74.05 872.65 73.33C873.05 72.59 873.25 71.71 873.25 70.69ZM886.472 65.83V73.87C886.472 74.43 886.602 74.84 886.862 75.1C887.142 75.34 887.602 75.46 888.242 75.46H890.192V79H887.552C884.012 79 882.242 77.28 882.242 73.84V65.83H880.262V62.38H882.242V58.27H886.472V62.38H890.192V65.83H886.472ZM895.343 60.4C894.603 60.4 893.983 60.17 893.483 59.71C893.003 59.23 892.763 58.64 892.763 57.94C892.763 57.24 893.003 56.66 893.483 56.2C893.983 55.72 894.603 55.48 895.343 55.48C896.083 55.48 896.693 55.72 897.173 56.2C897.673 56.66 897.923 57.24 897.923 57.94C897.923 58.64 897.673 59.23 897.173 59.71C896.693 60.17 896.083 60.4 895.343 60.4ZM897.413 62.38V79H893.213V62.38H897.413ZM908.942 79.27C907.342 79.27 905.902 78.92 904.622 78.22C903.342 77.5 902.332 76.49 901.592 75.19C900.872 73.89 900.512 72.39 900.512 70.69C900.512 68.99 900.882 67.49 901.622 66.19C902.382 64.89 903.412 63.89 904.712 63.19C906.012 62.47 907.462 62.11 909.062 62.11C910.662 62.11 912.112 62.47 913.412 63.19C914.712 63.89 915.732 64.89 916.472 66.19C917.232 67.49 917.612 68.99 917.612 70.69C917.612 72.39 917.222 73.89 916.442 75.19C915.682 76.49 914.642 77.5 913.322 78.22C912.022 78.92 910.562 79.27 908.942 79.27ZM908.942 75.61C909.702 75.61 910.412 75.43 911.072 75.07C911.752 74.69 912.292 74.13 912.692 73.39C913.092 72.65 913.292 71.75 913.292 70.69C913.292 69.11 912.872 67.9 912.032 67.06C911.212 66.2 910.202 65.77 909.002 65.77C907.802 65.77 906.792 66.2 905.972 67.06C905.172 67.9 904.772 69.11 904.772 70.69C904.772 72.27 905.162 73.49 905.942 74.35C906.742 75.19 907.742 75.61 908.942 75.61ZM929.903 62.14C931.883 62.14 933.483 62.77 934.703 64.03C935.923 65.27 936.533 67.01 936.533 69.25V79H932.333V69.82C932.333 68.5 932.003 67.49 931.343 66.79C930.683 66.07 929.783 65.71 928.643 65.71C927.483 65.71 926.563 66.07 925.883 66.79C925.223 67.49 924.893 68.5 924.893 69.82V79H920.693V62.38H924.893V64.45C925.453 63.73 926.163 63.17 927.023 62.77C927.903 62.35 928.863 62.14 929.903 62.14Z" fill="white"/>
<path d="M991.34 64.54C991.34 65.66 991.07 66.71 990.53 67.69C990.01 68.67 989.18 69.46 988.04 70.06C986.92 70.66 985.5 70.96 983.78 70.96H980.27V79H976.07V58.06H983.78C985.4 58.06 986.78 58.34 987.92 58.9C989.06 59.46 989.91 60.23 990.47 61.21C991.05 62.19 991.34 63.3 991.34 64.54ZM983.6 67.57C984.76 67.57 985.62 67.31 986.18 66.79C986.74 66.25 987.02 65.5 987.02 64.54C987.02 62.5 985.88 61.48 983.6 61.48H980.27V67.57H983.6ZM1001.7 79.27C1000.1 79.27 998.662 78.92 997.382 78.22C996.102 77.5 995.092 76.49 994.352 75.19C993.632 73.89 993.272 72.39 993.272 70.69C993.272 68.99 993.642 67.49 994.382 66.19C995.142 64.89 996.172 63.89 997.472 63.19C998.772 62.47 1000.22 62.11 1001.82 62.11C1003.42 62.11 1004.87 62.47 1006.17 63.19C1007.47 63.89 1008.49 64.89 1009.23 66.19C1009.99 67.49 1010.37 68.99 1010.37 70.69C1010.37 72.39 1009.98 73.89 1009.2 75.19C1008.44 76.49 1007.4 77.5 1006.08 78.22C1004.78 78.92 1003.32 79.27 1001.7 79.27ZM1001.7 75.61C1002.46 75.61 1003.17 75.43 1003.83 75.07C1004.51 74.69 1005.05 74.13 1005.45 73.39C1005.85 72.65 1006.05 71.75 1006.05 70.69C1006.05 69.11 1005.63 67.9 1004.79 67.06C1003.97 66.2 1002.96 65.77 1001.76 65.77C1000.56 65.77 999.552 66.2 998.732 67.06C997.932 67.9 997.532 69.11 997.532 70.69C997.532 72.27 997.922 73.49 998.702 74.35C999.502 75.19 1000.5 75.61 1001.7 75.61ZM1017.65 64.96C1018.19 64.08 1018.89 63.39 1019.75 62.89C1020.63 62.39 1021.63 62.14 1022.75 62.14V66.55H1021.64C1020.32 66.55 1019.32 66.86 1018.64 67.48C1017.98 68.1 1017.65 69.18 1017.65 70.72V79H1013.45V62.38H1017.65V64.96ZM1030.47 65.83V73.87C1030.47 74.43 1030.6 74.84 1030.86 75.1C1031.14 75.34 1031.6 75.46 1032.24 75.46H1034.19V79H1031.55C1028.01 79 1026.24 77.28 1026.24 73.84V65.83H1024.26V62.38H1026.24V58.27H1030.47V62.38H1034.19V65.83H1030.47ZM1044.83 65.83H1041.92V79H1037.66V65.83H1035.77V62.38H1037.66V61.54C1037.66 59.5 1038.24 58 1039.4 57.04C1040.56 56.08 1042.31 55.63 1044.65 55.69V59.23C1043.63 59.21 1042.92 59.38 1042.52 59.74C1042.12 60.1 1041.92 60.75 1041.92 61.69V62.38H1044.83V65.83ZM1054.93 79.27C1053.33 79.27 1051.89 78.92 1050.61 78.22C1049.33 77.5 1048.32 76.49 1047.58 75.19C1046.86 73.89 1046.5 72.39 1046.5 70.69C1046.5 68.99 1046.87 67.49 1047.61 66.19C1048.37 64.89 1049.4 63.89 1050.7 63.19C1052 62.47 1053.45 62.11 1055.05 62.11C1056.65 62.11 1058.1 62.47 1059.4 63.19C1060.7 63.89 1061.72 64.89 1062.46 66.19C1063.22 67.49 1063.6 68.99 1063.6 70.69C1063.6 72.39 1063.21 73.89 1062.43 75.19C1061.67 76.49 1060.63 77.5 1059.31 78.22C1058.01 78.92 1056.55 79.27 1054.93 79.27ZM1054.93 75.61C1055.69 75.61 1056.4 75.43 1057.06 75.07C1057.74 74.69 1058.28 74.13 1058.68 73.39C1059.08 72.65 1059.28 71.75 1059.28 70.69C1059.28 69.11 1058.86 67.9 1058.02 67.06C1057.2 66.2 1056.19 65.77 1054.99 65.77C1053.79 65.77 1052.78 66.2 1051.96 67.06C1051.16 67.9 1050.76 69.11 1050.76 70.69C1050.76 72.27 1051.15 73.49 1051.93 74.35C1052.73 75.19 1053.73 75.61 1054.93 75.61ZM1070.89 56.8V79H1066.69V56.8H1070.89ZM1077.16 60.4C1076.42 60.4 1075.8 60.17 1075.3 59.71C1074.82 59.23 1074.58 58.64 1074.58 57.94C1074.58 57.24 1074.82 56.66 1075.3 56.2C1075.8 55.72 1076.42 55.48 1077.16 55.48C1077.9 55.48 1078.51 55.72 1078.99 56.2C1079.49 56.66 1079.74 57.24 1079.74 57.94C1079.74 58.64 1079.49 59.23 1078.99 59.71C1078.51 60.17 1077.9 60.4 1077.16 60.4ZM1079.23 62.38V79H1075.03V62.38H1079.23ZM1090.76 79.27C1089.16 79.27 1087.72 78.92 1086.44 78.22C1085.16 77.5 1084.15 76.49 1083.41 75.19C1082.69 73.89 1082.33 72.39 1082.33 70.69C1082.33 68.99 1082.7 67.49 1083.44 66.19C1084.2 64.89 1085.23 63.89 1086.53 63.19C1087.83 62.47 1089.28 62.11 1090.88 62.11C1092.48 62.11 1093.93 62.47 1095.23 63.19C1096.53 63.89 1097.55 64.89 1098.29 66.19C1099.05 67.49 1099.43 68.99 1099.43 70.69C1099.43 72.39 1099.04 73.89 1098.26 75.19C1097.5 76.49 1096.46 77.5 1095.14 78.22C1093.84 78.92 1092.38 79.27 1090.76 79.27ZM1090.76 75.61C1091.52 75.61 1092.23 75.43 1092.89 75.07C1093.57 74.69 1094.11 74.13 1094.51 73.39C1094.91 72.65 1095.11 71.75 1095.11 70.69C1095.11 69.11 1094.69 67.9 1093.85 67.06C1093.03 66.2 1092.02 65.77 1090.82 65.77C1089.62 65.77 1088.61 66.2 1087.79 67.06C1086.99 67.9 1086.59 69.11 1086.59 70.69C1086.59 72.27 1086.98 73.49 1087.76 74.35C1088.56 75.19 1089.56 75.61 1090.76 75.61Z" fill="white"/>
<rect x="1136" y="42" width="144" height="53" rx="4" fill="#0B0A0A"/>
<path d="M1147.05 68.5C1147.05 66.44 1147.51 64.6 1148.43 62.98C1149.37 61.34 1150.64 60.07 1152.24 59.17C1153.86 58.25 1155.67 57.79 1157.67 57.79C1160.01 57.79 1162.06 58.39 1163.82 59.59C1165.58 60.79 1166.81 62.45 1167.51 64.57H1162.68C1162.2 63.57 1161.52 62.82 1160.64 62.32C1159.78 61.82 1158.78 61.57 1157.64 61.57C1156.42 61.57 1155.33 61.86 1154.37 62.44C1153.43 63 1152.69 63.8 1152.15 64.84C1151.63 65.88 1151.37 67.1 1151.37 68.5C1151.37 69.88 1151.63 71.1 1152.15 72.16C1152.69 73.2 1153.43 74.01 1154.37 74.59C1155.33 75.15 1156.42 75.43 1157.64 75.43C1158.78 75.43 1159.78 75.18 1160.64 74.68C1161.52 74.16 1162.2 73.4 1162.68 72.4H1167.51C1166.81 74.54 1165.58 76.21 1163.82 77.41C1162.08 78.59 1160.03 79.18 1157.67 79.18C1155.67 79.18 1153.86 78.73 1152.24 77.83C1150.64 76.91 1149.37 75.64 1148.43 74.02C1147.51 72.4 1147.05 70.56 1147.05 68.5ZM1178.48 79.27C1176.88 79.27 1175.44 78.92 1174.16 78.22C1172.88 77.5 1171.87 76.49 1171.13 75.19C1170.41 73.89 1170.05 72.39 1170.05 70.69C1170.05 68.99 1170.42 67.49 1171.16 66.19C1171.92 64.89 1172.95 63.89 1174.25 63.19C1175.55 62.47 1177 62.11 1178.6 62.11C1180.2 62.11 1181.65 62.47 1182.95 63.19C1184.25 63.89 1185.27 64.89 1186.01 66.19C1186.77 67.49 1187.15 68.99 1187.15 70.69C1187.15 72.39 1186.76 73.89 1185.98 75.19C1185.22 76.49 1184.18 77.5 1182.86 78.22C1181.56 78.92 1180.1 79.27 1178.48 79.27ZM1178.48 75.61C1179.24 75.61 1179.95 75.43 1180.61 75.07C1181.29 74.69 1181.83 74.13 1182.23 73.39C1182.63 72.65 1182.83 71.75 1182.83 70.69C1182.83 69.11 1182.41 67.9 1181.57 67.06C1180.75 66.2 1179.74 65.77 1178.54 65.77C1177.34 65.77 1176.33 66.2 1175.51 67.06C1174.71 67.9 1174.31 69.11 1174.31 70.69C1174.31 72.27 1174.7 73.49 1175.48 74.35C1176.28 75.19 1177.28 75.61 1178.48 75.61ZM1199.44 62.14C1201.42 62.14 1203.02 62.77 1204.24 64.03C1205.46 65.27 1206.07 67.01 1206.07 69.25V79H1201.87V69.82C1201.87 68.5 1201.54 67.49 1200.88 66.79C1200.22 66.07 1199.32 65.71 1198.18 65.71C1197.02 65.71 1196.1 66.07 1195.42 66.79C1194.76 67.49 1194.43 68.5 1194.43 69.82V79H1190.23V62.38H1194.43V64.45C1194.99 63.73 1195.7 63.17 1196.56 62.77C1197.44 62.35 1198.4 62.14 1199.44 62.14ZM1214.95 65.83V73.87C1214.95 74.43 1215.08 74.84 1215.34 75.1C1215.62 75.34 1216.08 75.46 1216.72 75.46H1218.67V79H1216.03C1212.49 79 1210.72 77.28 1210.72 73.84V65.83H1208.74V62.38H1210.72V58.27H1214.95V62.38H1218.67V65.83H1214.95ZM1220.61 70.63C1220.61 68.95 1220.94 67.46 1221.6 66.16C1222.28 64.86 1223.19 63.86 1224.33 63.16C1225.49 62.46 1226.78 62.11 1228.2 62.11C1229.44 62.11 1230.52 62.36 1231.44 62.86C1232.38 63.36 1233.13 63.99 1233.69 64.75V62.38H1237.92V79H1233.69V76.57C1233.15 77.35 1232.4 78 1231.44 78.52C1230.5 79.02 1229.41 79.27 1228.17 79.27C1226.77 79.27 1225.49 78.91 1224.33 78.19C1223.19 77.47 1222.28 76.46 1221.6 75.16C1220.94 73.84 1220.61 72.33 1220.61 70.63ZM1233.69 70.69C1233.69 69.67 1233.49 68.8 1233.09 68.08C1232.69 67.34 1232.15 66.78 1231.47 66.4C1230.79 66 1230.06 65.8 1229.28 65.8C1228.5 65.8 1227.78 65.99 1227.12 66.37C1226.46 66.75 1225.92 67.31 1225.5 68.05C1225.1 68.77 1224.9 69.63 1224.9 70.63C1224.9 71.63 1225.1 72.51 1225.5 73.27C1225.92 74.01 1226.46 74.58 1227.12 74.98C1227.8 75.38 1228.52 75.58 1229.28 75.58C1230.06 75.58 1230.79 75.39 1231.47 75.01C1232.15 74.61 1232.69 74.05 1233.09 73.33C1233.49 72.59 1233.69 71.71 1233.69 70.69ZM1240.95 70.69C1240.95 68.97 1241.3 67.47 1242 66.19C1242.7 64.89 1243.67 63.89 1244.91 63.19C1246.15 62.47 1247.57 62.11 1249.17 62.11C1251.23 62.11 1252.93 62.63 1254.27 63.67C1255.63 64.69 1256.54 66.13 1257 67.99H1252.47C1252.23 67.27 1251.82 66.71 1251.24 66.31C1250.68 65.89 1249.98 65.68 1249.14 65.68C1247.94 65.68 1246.99 66.12 1246.29 67C1245.59 67.86 1245.24 69.09 1245.24 70.69C1245.24 72.27 1245.59 73.5 1246.29 74.38C1246.99 75.24 1247.94 75.67 1249.14 75.67C1250.84 75.67 1251.95 74.91 1252.47 73.39H1257C1256.54 75.19 1255.63 76.62 1254.27 77.68C1252.91 78.74 1251.21 79.27 1249.17 79.27C1247.57 79.27 1246.15 78.92 1244.91 78.22C1243.67 77.5 1242.7 76.5 1242 75.22C1241.3 73.92 1240.95 72.41 1240.95 70.69ZM1264.96 65.83V73.87C1264.96 74.43 1265.09 74.84 1265.35 75.1C1265.63 75.34 1266.09 75.46 1266.73 75.46H1268.68V79H1266.04C1262.5 79 1260.73 77.28 1260.73 73.84V65.83H1258.75V62.38H1260.73V58.27H1264.96V62.38H1268.68V65.83H1264.96Z" fill="white"/>
<path d="M165.6 449V407.84H174.84V424.92H202.28V407.84H211.52V449H202.28V431.64H174.84V449H165.6ZM229.888 449C227.555 449 225.758 448.697 224.498 448.09C223.238 447.483 222.328 446.713 221.768 445.78C221.255 444.847 220.928 443.867 220.788 442.84C220.695 441.813 220.648 440.88 220.648 440.04V426.6C220.648 425.9 220.695 425.06 220.788 424.08C220.928 423.053 221.255 422.05 221.768 421.07C222.328 420.09 223.238 419.273 224.498 418.62C225.805 417.967 227.602 417.64 229.888 417.64H244.938C248.018 417.64 250.422 417.943 252.148 418.55C253.922 419.11 255.158 420.043 255.858 421.35C256.605 422.657 256.978 424.407 256.978 426.6V436.96H244.728C240.528 436.96 237.098 436.867 234.438 436.68C231.825 436.493 230.075 436.377 229.188 436.33V440.18C229.142 442.047 230.262 442.98 232.548 442.98H236.118C238.638 442.98 241.088 442.957 243.468 442.91C245.895 442.817 248.112 442.723 250.118 442.63C252.125 442.49 253.735 442.373 254.948 442.28L257.748 446.83C257.748 448.277 253.152 449 243.958 449H229.888ZM229.188 430.94H248.438V426.46C248.438 425.527 248.322 424.873 248.088 424.5C247.902 424.127 247.295 423.893 246.268 423.8C245.242 423.707 243.492 423.66 241.018 423.66H232.548C230.308 423.66 229.188 424.593 229.188 426.46V430.94ZM265.457 449V410.22L264.757 404.62H273.997V449H265.457ZM283.093 449V410.22L282.393 404.62H291.633V449H283.093ZM308.57 449C305.443 449 303.11 448.37 301.57 447.11C300.077 445.85 299.33 443.797 299.33 440.95V426.6C299.33 425.9 299.377 425.06 299.47 424.08C299.61 423.053 299.937 422.05 300.45 421.07C301.01 420.09 301.92 419.273 303.18 418.62C304.487 417.967 306.283 417.64 308.57 417.64H327.89C330.223 417.64 332.02 417.967 333.28 418.62C334.54 419.273 335.427 420.09 335.94 421.07C336.5 422.05 336.827 423.053 336.92 424.08C337.06 425.06 337.13 425.9 337.13 426.6V440.04C337.13 440.88 337.06 441.813 336.92 442.84C336.827 443.867 336.5 444.847 335.94 445.78C335.38 446.713 334.47 447.483 333.21 448.09C331.95 448.697 330.177 449 327.89 449H308.57ZM311.23 442.98H325.23C327.517 442.98 328.66 442.047 328.66 440.18V426.46C328.66 424.593 327.517 423.66 325.23 423.66H311.23C308.99 423.66 307.87 424.593 307.87 426.46V440.18C307.87 442.047 308.99 442.98 311.23 442.98ZM361.586 449V407.84H405.126V414.56H370.826V424.22H397.006V431.15H370.826V442.28H405.406L408.206 448.23C408.206 448.417 407.576 448.603 406.316 448.79C405.056 448.93 402.886 449 399.806 449H361.586ZM424.7 449L410.28 417.64H420.08L428.13 436.96L429.95 442H430.65L432.47 436.96L440.66 417.64H450.18L449.06 421.91L435.9 449H424.7ZM463.609 449C461.276 449 459.479 448.697 458.219 448.09C456.959 447.483 456.049 446.713 455.489 445.78C454.976 444.847 454.649 443.867 454.509 442.84C454.416 441.813 454.369 440.88 454.369 440.04V426.6C454.369 425.9 454.416 425.06 454.509 424.08C454.649 423.053 454.976 422.05 455.489 421.07C456.049 420.09 456.959 419.273 458.219 418.62C459.526 417.967 461.322 417.64 463.609 417.64H478.659C481.739 417.64 484.142 417.943 485.869 418.55C487.642 419.11 488.879 420.043 489.579 421.35C490.326 422.657 490.699 424.407 490.699 426.6V436.96H478.449C474.249 436.96 470.819 436.867 468.159 436.68C465.546 436.493 463.796 436.377 462.909 436.33V440.18C462.862 442.047 463.982 442.98 466.269 442.98H469.839C472.359 442.98 474.809 442.957 477.189 442.91C479.616 442.817 481.832 442.723 483.839 442.63C485.846 442.49 487.456 442.373 488.669 442.28L491.469 446.83C491.469 448.277 486.872 449 477.679 449H463.609ZM462.909 430.94H482.159V426.46C482.159 425.527 482.042 424.873 481.809 424.5C481.622 424.127 481.016 423.893 479.989 423.8C478.962 423.707 477.212 423.66 474.739 423.66H466.269C464.029 423.66 462.909 424.593 462.909 426.46V430.94ZM498.477 449V417.64H504.217L506.877 419.04C508.091 418.387 509.397 417.873 510.797 417.5C512.197 417.127 513.971 416.94 516.117 416.94C519.524 416.94 522.277 417.313 524.377 418.06C526.524 418.807 527.947 419.367 528.647 419.74L526.197 425.83C525.637 425.55 524.704 425.2 523.397 424.78C522.137 424.313 520.644 423.893 518.917 423.52C517.191 423.147 515.301 422.96 513.247 422.96H512.477C510.237 422.96 508.767 423.403 508.067 424.29C507.414 425.177 507.064 426.647 507.017 428.7V449H498.477ZM536.486 462.72C534.246 462.72 532.192 462.463 530.326 461.95C528.459 461.437 527.199 460.97 526.546 460.55L528.646 454.25C529.439 454.577 530.559 454.95 532.006 455.37C533.499 455.837 535.179 456.07 537.046 456.07H537.816C539.962 456.07 541.852 455.417 543.486 454.11C545.166 452.85 546.449 451.147 547.336 449H543.836L530.116 417.64H539.916L547.966 436.96L549.786 442H550.486L552.306 436.96L560.496 417.64H570.016L568.896 421.91C568.009 423.73 566.982 425.83 565.816 428.21C564.696 430.543 563.529 432.97 562.316 435.49C561.102 438.01 559.912 440.437 558.746 442.77C557.626 445.103 556.622 447.18 555.736 449C554.382 451.8 552.889 454.227 551.256 456.28C549.669 458.333 547.826 459.92 545.726 461.04C543.672 462.16 541.222 462.72 538.376 462.72H536.486ZM583.443 449C580.316 449 577.983 448.37 576.443 447.11C574.95 445.85 574.203 443.797 574.203 440.95V426.6C574.203 425.9 574.25 425.06 574.343 424.08C574.483 423.053 574.81 422.05 575.323 421.07C575.883 420.09 576.793 419.273 578.053 418.62C579.36 417.967 581.156 417.64 583.443 417.64H602.763C605.096 417.64 606.893 417.967 608.153 418.62C609.413 419.273 610.3 420.09 610.813 421.07C611.373 422.05 611.7 423.053 611.793 424.08C611.933 425.06 612.003 425.9 612.003 426.6V440.04C612.003 440.88 611.933 441.813 611.793 442.84C611.7 443.867 611.373 444.847 610.813 445.78C610.253 446.713 609.343 447.483 608.083 448.09C606.823 448.697 605.05 449 602.763 449H583.443ZM586.103 442.98H600.103C602.39 442.98 603.533 442.047 603.533 440.18V426.46C603.533 424.593 602.39 423.66 600.103 423.66H586.103C583.863 423.66 582.743 424.593 582.743 426.46V440.18C582.743 442.047 583.863 442.98 586.103 442.98ZM619.679 449V417.64H625.419L628.219 419.04C630.179 418.667 632.535 418.34 635.289 418.06C638.042 417.78 641.192 417.64 644.739 417.64H648.239C650.572 417.64 652.369 417.967 653.629 418.62C654.889 419.273 655.775 420.09 656.289 421.07C656.849 422.05 657.175 423.053 657.269 424.08C657.409 425.06 657.479 425.9 657.479 426.6V449H648.939V426.46C648.939 424.593 647.819 423.66 645.579 423.66H630.319C629.432 423.66 628.849 423.753 628.569 423.94C628.335 424.08 628.219 424.5 628.219 425.2V449H619.679ZM674.088 449C671.754 449 669.958 448.697 668.698 448.09C667.438 447.483 666.528 446.713 665.968 445.78C665.454 444.847 665.128 443.867 664.988 442.84C664.894 441.813 664.848 440.88 664.848 440.04V426.6C664.848 425.9 664.894 425.06 664.988 424.08C665.128 423.053 665.454 422.05 665.968 421.07C666.528 420.09 667.438 419.273 668.698 418.62C670.004 417.967 671.801 417.64 674.088 417.64H689.138C692.218 417.64 694.621 417.943 696.348 418.55C698.121 419.11 699.358 420.043 700.058 421.35C700.804 422.657 701.178 424.407 701.178 426.6V436.96H688.928C684.728 436.96 681.298 436.867 678.638 436.68C676.024 436.493 674.274 436.377 673.388 436.33V440.18C673.341 442.047 674.461 442.98 676.748 442.98H680.318C682.838 442.98 685.288 442.957 687.668 442.91C690.094 442.817 692.311 442.723 694.318 442.63C696.324 442.49 697.934 442.373 699.148 442.28L701.948 446.83C701.948 448.277 697.351 449 688.158 449H674.088ZM673.388 430.94H692.638V426.46C692.638 425.527 692.521 424.873 692.288 424.5C692.101 424.127 691.494 423.893 690.468 423.8C689.441 423.707 687.691 423.66 685.218 423.66H676.748C674.508 423.66 673.388 424.593 673.388 426.46V430.94ZM710.776 458.66C709.796 458.94 709.213 458.8 709.026 458.24C708.886 457.727 708.979 457.19 709.306 456.63C709.586 456.257 709.959 455.65 710.426 454.81C710.939 453.97 711.429 453.013 711.896 451.94C712.363 450.913 712.666 449.863 712.806 448.79C711.593 448.603 710.706 448.16 710.146 447.46C709.586 446.76 709.306 445.687 709.306 444.24C709.306 442.607 709.679 441.463 710.426 440.81C711.219 440.11 712.503 439.76 714.276 439.76C716.189 439.76 717.613 440.18 718.546 441.02C719.526 441.813 720.016 443.143 720.016 445.01C720.016 446.363 719.713 447.787 719.106 449.28C718.546 450.773 717.799 452.173 716.866 453.48C715.933 454.833 714.929 455.953 713.856 456.84C712.783 457.773 711.756 458.38 710.776 458.66ZM165.6 533V491.84H174.84V533H165.6ZM209.05 533C205.504 533 202.937 532.183 201.35 530.55C199.764 528.87 198.97 526.583 198.97 523.69C198.97 520.657 199.787 518.323 201.42 516.69C203.1 515.057 205.644 514.24 209.05 514.24H212.62C216.12 514.24 219.27 514.333 222.07 514.52C224.87 514.707 227.18 514.893 229 515.08V510.46C229 510.04 228.954 509.62 228.86 509.2C228.767 508.733 228.487 508.36 228.02 508.08C227.554 507.8 226.76 507.66 225.64 507.66H222.14C217.054 507.66 212.807 507.753 209.4 507.94C205.994 508.08 203.684 508.22 202.47 508.36L201.7 503.04C201.7 502.387 203.474 501.99 207.02 501.85C210.567 501.71 216.494 501.64 224.8 501.64H228.3C230.634 501.64 232.43 501.967 233.69 502.62C234.95 503.273 235.837 504.09 236.35 505.07C236.91 506.05 237.237 507.053 237.33 508.08C237.47 509.06 237.54 509.9 237.54 510.6V533H231.8L229.07 531.6C227.11 531.927 224.754 532.253 222 532.58C219.247 532.86 216.097 533 212.55 533H209.05ZM210.87 526.98H226.9C227.927 526.98 228.534 526.887 228.72 526.7C228.907 526.513 229 525.93 229 524.95V519.56H210.87C209.61 519.56 208.724 519.863 208.21 520.47C207.744 521.077 207.51 522.033 207.51 523.34C207.51 524.647 207.79 525.58 208.35 526.14C208.91 526.7 209.75 526.98 210.87 526.98ZM245.616 533V501.64H251.356L253.106 502.48C254.459 502.247 256.116 502.06 258.076 501.92C260.036 501.733 262.369 501.64 265.076 501.64H268.576C269.929 501.64 271.236 501.827 272.496 502.2C273.756 502.527 274.689 503.017 275.296 503.67C276.509 503.063 278.189 502.573 280.336 502.2C282.483 501.827 285.283 501.64 288.736 501.64H292.236C294.569 501.64 296.366 501.967 297.626 502.62C298.886 503.273 299.773 504.09 300.286 505.07C300.846 506.05 301.173 507.053 301.266 508.08C301.406 509.06 301.476 509.9 301.476 510.6V533H292.936V510.46C292.936 508.593 291.816 507.66 289.576 507.66H279.776C279.029 507.66 278.516 507.753 278.236 507.94C277.956 508.127 277.816 508.547 277.816 509.2V533H269.276V510.46C269.276 508.593 268.156 507.66 265.916 507.66H256.256C255.369 507.66 254.786 507.753 254.506 507.94C254.273 508.08 254.156 508.5 254.156 509.2V533H245.616ZM340.943 533L321.413 491.91H331.213L344.373 520.26L346.263 525.3H346.893L348.713 520.26L362.013 491.91H371.533L370.413 496.11L352.143 533H340.943ZM380.059 497.23C378.332 497.23 377.072 496.88 376.279 496.18C375.485 495.48 375.089 494.313 375.089 492.68C375.089 491 375.462 489.833 376.209 489.18C377.002 488.48 378.285 488.13 380.059 488.13C381.832 488.13 383.115 488.48 383.909 489.18C384.702 489.833 385.099 491 385.099 492.68C385.099 494.267 384.702 495.433 383.909 496.18C383.115 496.88 381.832 497.23 380.059 497.23ZM375.789 533V501.64H384.329V533H375.789ZM427.007 533.7C425.047 533.7 423.367 533.467 421.967 533C420.614 532.533 419.167 531.53 417.627 529.99C417.487 529.85 417.114 529.477 416.507 528.87C415.901 528.263 415.224 527.587 414.477 526.84C413.777 526.093 413.124 525.417 412.517 524.81C411.911 524.203 411.514 523.807 411.327 523.62C410.161 522.453 409.041 521.543 407.967 520.89C406.941 520.237 405.657 519.91 404.117 519.91C403.091 519.91 402.484 520.003 402.297 520.19C402.111 520.377 402.017 521.007 402.017 522.08V533H393.477V488.69H402.017V513.89H404.257C405.097 513.89 405.844 513.563 406.497 512.91C406.917 512.49 407.711 511.65 408.877 510.39C410.044 509.13 411.351 507.707 412.797 506.12C414.291 504.533 415.644 503.063 416.857 501.71H427.147L426.027 503.88C424.954 505 423.787 506.19 422.527 507.45C421.267 508.663 420.031 509.853 418.817 511.02C417.651 512.14 416.577 513.143 415.597 514.03C414.617 514.87 413.871 515.43 413.357 515.71C414.757 516.457 416.017 517.32 417.137 518.3C418.257 519.233 419.471 520.307 420.777 521.52C422.084 522.687 423.647 524.017 425.467 525.51C427.101 526.817 428.617 527.587 430.017 527.82C431.417 528.007 432.257 528.1 432.537 528.1L431.277 533C430.811 533.14 430.181 533.28 429.387 533.42C428.594 533.607 427.801 533.7 427.007 533.7ZM445.779 533C442.232 533 439.665 532.183 438.079 530.55C436.492 528.87 435.699 526.583 435.699 523.69C435.699 520.657 436.515 518.323 438.149 516.69C439.829 515.057 442.372 514.24 445.779 514.24H449.349C452.849 514.24 455.999 514.333 458.799 514.52C461.599 514.707 463.909 514.893 465.729 515.08V510.46C465.729 510.04 465.682 509.62 465.589 509.2C465.495 508.733 465.215 508.36 464.749 508.08C464.282 507.8 463.489 507.66 462.369 507.66H458.869C453.782 507.66 449.535 507.753 446.129 507.94C442.722 508.08 440.412 508.22 439.199 508.36L438.429 503.04C438.429 502.387 440.202 501.99 443.749 501.85C447.295 501.71 453.222 501.64 461.529 501.64H465.029C467.362 501.64 469.159 501.967 470.419 502.62C471.679 503.273 472.565 504.09 473.079 505.07C473.639 506.05 473.965 507.053 474.059 508.08C474.199 509.06 474.269 509.9 474.269 510.6V533H468.529L465.799 531.6C463.839 531.927 461.482 532.253 458.729 532.58C455.975 532.86 452.825 533 449.279 533H445.779ZM447.599 526.98H463.629C464.655 526.98 465.262 526.887 465.449 526.7C465.635 526.513 465.729 525.93 465.729 524.95V519.56H447.599C446.339 519.56 445.452 519.863 444.939 520.47C444.472 521.077 444.239 522.033 444.239 523.34C444.239 524.647 444.519 525.58 445.079 526.14C445.639 526.7 446.479 526.98 447.599 526.98ZM490.255 533C487.128 533 484.911 532.837 483.605 532.51C482.298 532.183 481.645 531.857 481.645 531.53L483.745 526.28C485.098 526.42 487.571 526.583 491.165 526.77C494.805 526.91 499.285 526.98 504.605 526.98H508.105C509.271 526.98 509.995 526.677 510.275 526.07C510.601 525.417 510.765 524.553 510.765 523.48C510.765 522.407 510.578 521.543 510.205 520.89C509.878 520.237 509.178 519.91 508.105 519.91H490.885C487.618 519.91 485.261 519.303 483.815 518.09C482.368 516.83 481.645 514.963 481.645 512.49V509.69C481.645 509.037 481.715 508.267 481.855 507.38C481.995 506.493 482.345 505.607 482.905 504.72C483.465 503.833 484.375 503.11 485.635 502.55C486.895 501.943 488.645 501.64 490.885 501.64H510.205C513.005 501.64 514.988 501.803 516.155 502.13C517.321 502.457 517.905 502.783 517.905 503.11L517.205 508.36C515.851 508.22 513.355 508.08 509.715 507.94C506.075 507.753 501.618 507.66 496.345 507.66H492.845C491.678 507.66 490.931 507.987 490.605 508.64C490.325 509.247 490.185 509.97 490.185 510.81C490.185 511.697 490.325 512.443 490.605 513.05C490.931 513.61 491.678 513.89 492.845 513.89H510.065C513.238 513.89 515.571 514.543 517.065 515.85C518.558 517.157 519.305 518.813 519.305 520.82V524.95C519.305 525.79 519.235 526.677 519.095 527.61C519.001 528.543 518.675 529.43 518.115 530.27C517.555 531.063 516.645 531.717 515.385 532.23C514.125 532.743 512.351 533 510.065 533H490.255ZM555.874 533C552.561 533 549.971 532.533 548.104 531.6C546.237 530.667 544.931 529.267 544.184 527.4C543.437 525.533 543.064 523.223 543.064 520.47V504.86C543.064 500.38 544.067 497.09 546.074 494.99C548.081 492.843 551.347 491.77 555.874 491.77H576.944C580.164 491.77 582.614 491.957 584.294 492.33C586.021 492.657 586.884 493.007 586.884 493.38L585.484 499.19C584.691 499.05 582.334 498.91 578.414 498.77C574.541 498.583 568.894 498.49 561.474 498.49H557.904C554.171 498.49 552.304 500.147 552.304 503.46V521.31C552.304 522.897 552.701 524.133 553.494 525.02C554.334 525.86 555.804 526.28 557.904 526.28H560.774C568.521 526.28 574.517 526.21 578.764 526.07C583.057 525.883 585.717 525.697 586.744 525.51L589.614 530.13C589.614 530.363 589.217 530.713 588.424 531.18C587.677 531.647 586.277 532.067 584.224 532.44C582.171 532.813 579.207 533 575.334 533H555.874ZM595.206 533V487.64H603.746V503.04C605.706 502.667 608.063 502.34 610.816 502.06C613.569 501.78 616.719 501.64 620.266 501.64H623.766C626.099 501.64 627.896 501.967 629.156 502.62C630.416 503.273 631.303 504.09 631.816 505.07C632.376 506.05 632.703 507.053 632.796 508.08C632.936 509.06 633.006 509.9 633.006 510.6V533H624.466V510.46C624.466 508.593 623.346 507.66 621.106 507.66H605.846C604.959 507.66 604.376 507.753 604.096 507.94C603.863 508.08 603.746 508.5 603.746 509.2V533H595.206ZM649.615 533C646.488 533 644.155 532.37 642.615 531.11C641.122 529.85 640.375 527.797 640.375 524.95V510.6C640.375 509.9 640.422 509.06 640.515 508.08C640.655 507.053 640.982 506.05 641.495 505.07C642.055 504.09 642.965 503.273 644.225 502.62C645.532 501.967 647.328 501.64 649.615 501.64H668.935C671.268 501.64 673.065 501.967 674.325 502.62C675.585 503.273 676.472 504.09 676.985 505.07C677.545 506.05 677.872 507.053 677.965 508.08C678.105 509.06 678.175 509.9 678.175 510.6V524.04C678.175 524.88 678.105 525.813 677.965 526.84C677.872 527.867 677.545 528.847 676.985 529.78C676.425 530.713 675.515 531.483 674.255 532.09C672.995 532.697 671.222 533 668.935 533H649.615ZM652.275 526.98H666.275C668.562 526.98 669.705 526.047 669.705 524.18V510.46C669.705 508.593 668.562 507.66 666.275 507.66H652.275C650.035 507.66 648.915 508.593 648.915 510.46V524.18C648.915 526.047 650.035 526.98 652.275 526.98ZM695.09 533C692.804 533 691.007 532.697 689.7 532.09C688.44 531.483 687.53 530.713 686.97 529.78C686.457 528.847 686.13 527.867 685.99 526.84C685.897 525.813 685.85 524.88 685.85 524.04V501.64H694.39V524.18C694.344 525.207 694.67 525.93 695.37 526.35C696.117 526.77 696.91 526.98 697.75 526.98H711.61C712.637 526.98 713.244 526.887 713.43 526.7C713.617 526.513 713.71 525.907 713.71 524.88V501.64H722.25V533H716.51L713.85 531.6C711.984 531.973 709.767 532.3 707.2 532.58C704.68 532.86 701.834 533 698.66 533H695.09ZM739.166 533C736.832 533 735.036 532.697 733.776 532.09C732.516 531.483 731.606 530.713 731.046 529.78C730.532 528.847 730.206 527.867 730.066 526.84C729.972 525.813 729.926 524.88 729.926 524.04V510.6C729.926 509.9 729.972 509.06 730.066 508.08C730.206 507.053 730.532 506.05 731.046 505.07C731.606 504.09 732.516 503.273 733.776 502.62C735.082 501.967 736.879 501.64 739.166 501.64H742.736C747.029 501.64 750.482 501.733 753.096 501.92C755.756 502.06 757.786 502.223 759.186 502.41V488.62H767.726V533H761.986L759.256 531.6C757.296 531.927 754.939 532.253 752.186 532.58C749.432 532.86 746.259 533 742.666 533H739.166ZM741.826 526.98H757.016C757.996 526.98 758.602 526.863 758.836 526.63C759.069 526.397 759.186 525.813 759.186 524.88V508.15C757.599 508.057 755.592 507.963 753.166 507.87C750.739 507.73 748.149 507.66 745.396 507.66H741.826C739.586 507.66 738.466 508.593 738.466 510.46V524.18C738.466 526.047 739.586 526.98 741.826 526.98ZM776.837 533V487.64H785.377V503.04C787.337 502.667 789.693 502.34 792.447 502.06C795.2 501.78 798.35 501.64 801.897 501.64H805.397C807.73 501.64 809.527 501.967 810.787 502.62C812.047 503.273 812.933 504.09 813.447 505.07C814.007 506.05 814.333 507.053 814.427 508.08C814.567 509.06 814.637 509.9 814.637 510.6V533H806.097V510.46C806.097 508.593 804.977 507.66 802.737 507.66H787.477C786.59 507.66 786.007 507.753 785.727 507.94C785.493 508.08 785.377 508.5 785.377 509.2V533H776.837ZM831.736 533C828.189 533 825.623 532.183 824.036 530.55C822.449 528.87 821.656 526.583 821.656 523.69C821.656 520.657 822.473 518.323 824.106 516.69C825.786 515.057 828.329 514.24 831.736 514.24H835.306C838.806 514.24 841.956 514.333 844.756 514.52C847.556 514.707 849.866 514.893 851.686 515.08V510.46C851.686 510.04 851.639 509.62 851.546 509.2C851.453 508.733 851.173 508.36 850.706 508.08C850.239 507.8 849.446 507.66 848.326 507.66H844.826C839.739 507.66 835.493 507.753 832.086 507.94C828.679 508.08 826.369 508.22 825.156 508.36L824.386 503.04C824.386 502.387 826.159 501.99 829.706 501.85C833.253 501.71 839.179 501.64 847.486 501.64H850.986C853.319 501.64 855.116 501.967 856.376 502.62C857.636 503.273 858.523 504.09 859.036 505.07C859.596 506.05 859.923 507.053 860.016 508.08C860.156 509.06 860.226 509.9 860.226 510.6V533H854.486L851.756 531.6C849.796 531.927 847.439 532.253 844.686 532.58C841.933 532.86 838.783 533 835.236 533H831.736ZM833.556 526.98H849.586C850.613 526.98 851.219 526.887 851.406 526.7C851.593 526.513 851.686 525.93 851.686 524.95V519.56H833.556C832.296 519.56 831.409 519.863 830.896 520.47C830.429 521.077 830.196 522.033 830.196 523.34C830.196 524.647 830.476 525.58 831.036 526.14C831.596 526.7 832.436 526.98 833.556 526.98ZM868.302 533V501.64H874.042L876.702 503.04C877.915 502.387 879.222 501.873 880.622 501.5C882.022 501.127 883.795 500.94 885.942 500.94C889.348 500.94 892.102 501.313 894.202 502.06C896.348 502.807 897.772 503.367 898.472 503.74L896.022 509.83C895.462 509.55 894.528 509.2 893.222 508.78C891.962 508.313 890.468 507.893 888.742 507.52C887.015 507.147 885.125 506.96 883.072 506.96H882.302C880.062 506.96 878.592 507.403 877.892 508.29C877.238 509.177 876.888 510.647 876.842 512.7V533H868.302ZM908.34 497.23C906.613 497.23 905.353 496.88 904.56 496.18C903.767 495.48 903.37 494.313 903.37 492.68C903.37 491 903.743 489.833 904.49 489.18C905.283 488.48 906.567 488.13 908.34 488.13C910.113 488.13 911.397 488.48 912.19 489.18C912.983 489.833 913.38 491 913.38 492.68C913.38 494.267 912.983 495.433 912.19 496.18C911.397 496.88 910.113 497.23 908.34 497.23ZM904.07 533V501.64H912.61V533H904.07ZM208.93 617.7C206.503 617.7 204.473 617.327 202.84 616.58C201.207 615.833 199.573 614.783 197.94 613.43C197.1 613.99 196.097 614.55 194.93 615.11C193.81 615.623 192.293 616.067 190.38 616.44C188.467 616.767 185.97 616.93 182.89 616.93H177.01C174.117 616.93 171.83 616.463 170.15 615.53C168.517 614.597 167.35 613.29 166.65 611.61C165.95 609.93 165.6 607.97 165.6 605.73V603.35C165.6 599.71 166.323 596.91 167.77 594.95C169.217 592.99 171.293 591.707 174 591.1C173.487 590.447 172.973 589.583 172.46 588.51C171.993 587.39 171.76 586.037 171.76 584.45V583.47C171.76 582.35 172.063 581.207 172.67 580.04C173.323 578.827 174.373 577.823 175.82 577.03C177.267 576.19 179.25 575.77 181.77 575.77H189.05C191.383 575.77 193.18 576.05 194.44 576.61C195.7 577.123 196.587 577.8 197.1 578.64C197.66 579.48 197.987 580.343 198.08 581.23C198.22 582.117 198.29 582.91 198.29 583.61V586.2C198.29 586.993 198.057 587.577 197.59 587.95C197.17 588.277 196.587 588.44 195.84 588.44H189.89V585.01C189.89 584.217 189.703 583.61 189.33 583.19C188.957 582.723 188.303 582.49 187.37 582.49H183.94C182.913 582.49 182.167 582.723 181.7 583.19C181.28 583.61 181.07 584.217 181.07 585.01C181.07 586.317 181.35 587.367 181.91 588.16C182.47 588.907 183.473 589.817 184.92 590.89C186.6 592.057 188.257 593.247 189.89 594.46C191.57 595.627 193.133 596.863 194.58 598.17C195.327 598.823 196.143 599.593 197.03 600.48C197.917 601.32 198.733 602.113 199.48 602.86C200.227 603.607 200.717 604.12 200.95 604.4L201.65 603.91V591.45L211.52 592.15V598.03C211.52 599.01 211.38 599.873 211.1 600.62C210.867 601.367 210.353 602.137 209.56 602.93C208.813 603.677 208.067 604.423 207.32 605.17C206.573 605.917 205.827 606.663 205.08 607.41C206.713 608.997 208.44 610.14 210.26 610.84C212.127 611.54 213.667 611.89 214.88 611.89L214.04 616.93C213.667 617.117 213.013 617.28 212.08 617.42C211.193 617.607 210.143 617.7 208.93 617.7ZM179.39 609.3H188.14C190.053 609.3 191.383 609.137 192.13 608.81C192.923 608.483 193.367 608.273 193.46 608.18C192.293 607.06 190.893 605.683 189.26 604.05C187.627 602.417 185.783 600.76 183.73 599.08C181.957 597.633 180.277 596.91 178.69 596.91C177.477 596.91 176.473 597.33 175.68 598.17C174.933 598.963 174.56 600.06 174.56 601.46V604.4C174.56 606.127 174.933 607.387 175.68 608.18C176.427 608.927 177.663 609.3 179.39 609.3ZM237.241 617V575.84H246.481V617H237.241ZM256.7 581.86C255.72 582.14 255.137 582.023 254.95 581.51C254.81 580.95 254.903 580.39 255.23 579.83C255.51 579.457 255.883 578.85 256.35 578.01C256.863 577.17 257.353 576.237 257.82 575.21C258.287 574.137 258.59 573.063 258.73 571.99C257.517 571.803 256.63 571.36 256.07 570.66C255.51 569.96 255.23 568.887 255.23 567.44C255.23 565.807 255.603 564.663 256.35 564.01C257.143 563.31 258.427 562.96 260.2 562.96C262.113 562.96 263.537 563.38 264.47 564.22C265.45 565.013 265.94 566.343 265.94 568.21C265.94 569.563 265.637 570.987 265.03 572.48C264.47 573.973 263.723 575.397 262.79 576.75C261.857 578.057 260.853 579.177 259.78 580.11C258.707 580.997 257.68 581.58 256.7 581.86ZM275.763 617V585.64H281.503L283.253 586.48C284.606 586.247 286.263 586.06 288.223 585.92C290.183 585.733 292.516 585.64 295.223 585.64H298.723C300.076 585.64 301.383 585.827 302.643 586.2C303.903 586.527 304.836 587.017 305.443 587.67C306.656 587.063 308.336 586.573 310.483 586.2C312.629 585.827 315.429 585.64 318.883 585.64H322.383C324.716 585.64 326.513 585.967 327.773 586.62C329.033 587.273 329.919 588.09 330.433 589.07C330.993 590.05 331.319 591.053 331.413 592.08C331.553 593.06 331.623 593.9 331.623 594.6V617H323.083V594.46C323.083 592.593 321.963 591.66 319.723 591.66H309.923C309.176 591.66 308.663 591.753 308.383 591.94C308.103 592.127 307.963 592.547 307.963 593.2V617H299.423V594.46C299.423 592.593 298.303 591.66 296.063 591.66H286.403C285.516 591.66 284.933 591.753 284.653 591.94C284.419 592.08 284.303 592.5 284.303 593.2V617H275.763ZM364.089 617C360.543 617 357.976 616.183 356.389 614.55C354.803 612.87 354.009 610.583 354.009 607.69C354.009 604.657 354.826 602.323 356.459 600.69C358.139 599.057 360.683 598.24 364.089 598.24H367.659C371.159 598.24 374.309 598.333 377.109 598.52C379.909 598.707 382.219 598.893 384.039 599.08V594.46C384.039 594.04 383.993 593.62 383.899 593.2C383.806 592.733 383.526 592.36 383.059 592.08C382.593 591.8 381.799 591.66 380.679 591.66H377.179C372.093 591.66 367.846 591.753 364.439 591.94C361.033 592.08 358.723 592.22 357.509 592.36L356.739 587.04C356.739 586.387 358.513 585.99 362.059 585.85C365.606 585.71 371.533 585.64 379.839 585.64H383.339C385.673 585.64 387.469 585.967 388.729 586.62C389.989 587.273 390.876 588.09 391.389 589.07C391.949 590.05 392.276 591.053 392.369 592.08C392.509 593.06 392.579 593.9 392.579 594.6V617H386.839L384.109 615.6C382.149 615.927 379.793 616.253 377.039 616.58C374.286 616.86 371.136 617 367.589 617H364.089ZM365.909 610.98H381.939C382.966 610.98 383.573 610.887 383.759 610.7C383.946 610.513 384.039 609.93 384.039 608.95V603.56H365.909C364.649 603.56 363.763 603.863 363.249 604.47C362.783 605.077 362.549 606.033 362.549 607.34C362.549 608.647 362.829 609.58 363.389 610.14C363.949 610.7 364.789 610.98 365.909 610.98ZM427.796 617.7C423.549 617.7 420.586 616.557 418.906 614.27C417.226 611.983 416.386 608.95 416.386 605.17V575.84H425.626V605.45C425.626 607.643 426.163 609.113 427.236 609.86C428.309 610.607 429.639 610.98 431.226 610.98H446.066C447.559 610.98 448.866 610.607 449.986 609.86C451.106 609.067 451.666 607.597 451.666 605.45V575.84H460.906V605.17C460.906 607.69 460.556 609.883 459.856 611.75C459.156 613.617 457.989 615.087 456.356 616.16C454.723 617.187 452.459 617.7 449.566 617.7H427.796ZM471.03 617V575.84H480.27V617H471.03ZM487.269 622.6L505.399 576.26L506.239 572.69H515.409L497.279 619.17L496.439 622.6H487.269ZM532.796 617.7C528.549 617.7 525.586 616.557 523.906 614.27C522.226 611.983 521.386 608.95 521.386 605.17V575.84H530.626V605.45C530.626 607.643 531.163 609.113 532.236 609.86C533.309 610.607 534.639 610.98 536.226 610.98H551.066C552.559 610.98 553.866 610.607 554.986 609.86C556.106 609.067 556.666 607.597 556.666 605.45V575.84H565.906V605.17C565.906 607.69 565.556 609.883 564.856 611.75C564.156 613.617 562.989 615.087 561.356 616.16C559.723 617.187 557.459 617.7 554.566 617.7H532.796ZM571.13 617L573.79 612.8L589.33 596.42L571.13 575.84H582.33L595.84 591.31H596.61L610.19 575.84H621.39L618.66 579.97L603.19 596.42L621.39 617H610.19L596.61 601.39H595.84L582.33 617H571.13Z" fill="white"/>
<g clip-path="url(#clip1_1_60)">
<path d="M639.3 617V581.44L638.6 575.84H671.08C674.86 575.84 677.753 576.307 679.76 577.24C681.813 578.173 683.237 579.573 684.03 581.44C684.823 583.26 685.22 585.547 685.22 588.3V604.47C685.22 607.27 684.823 609.603 684.03 611.47C683.283 613.29 681.883 614.667 679.83 615.6C677.823 616.533 674.907 617 671.08 617H639.3ZM648.54 610.28H670.52C674.113 610.28 675.933 608.623 675.98 605.31V587.46C675.98 586.107 675.583 584.963 674.79 584.03C673.997 583.05 672.573 582.56 670.52 582.56H648.54V610.28ZM702.136 617C699.803 617 698.006 616.697 696.746 616.09C695.486 615.483 694.576 614.713 694.016 613.78C693.503 612.847 693.176 611.867 693.036 610.84C692.943 609.813 692.896 608.88 692.896 608.04V594.6C692.896 593.9 692.943 593.06 693.036 592.08C693.176 591.053 693.503 590.05 694.016 589.07C694.576 588.09 695.486 587.273 696.746 586.62C698.053 585.967 699.85 585.64 702.136 585.64H717.186C720.266 585.64 722.67 585.943 724.396 586.55C726.17 587.11 727.406 588.043 728.106 589.35C728.853 590.657 729.226 592.407 729.226 594.6V604.96H716.976C712.776 604.96 709.346 604.867 706.686 604.68C704.073 604.493 702.323 604.377 701.436 604.33V608.18C701.39 610.047 702.51 610.98 704.796 610.98H708.366C710.886 610.98 713.336 610.957 715.716 610.91C718.143 610.817 720.36 610.723 722.366 610.63C724.373 610.49 725.983 610.373 727.196 610.28L729.996 614.83C729.996 616.277 725.4 617 716.206 617H702.136ZM701.436 598.94H720.686V594.46C720.686 593.527 720.57 592.873 720.336 592.5C720.15 592.127 719.543 591.893 718.516 591.8C717.49 591.707 715.74 591.66 713.266 591.66H704.796C702.556 591.66 701.436 592.593 701.436 594.46V598.94ZM744.915 617C741.788 617 739.571 616.837 738.265 616.51C736.958 616.183 736.305 615.857 736.305 615.53L738.405 610.28C739.758 610.42 742.231 610.583 745.825 610.77C749.465 610.91 753.945 610.98 759.265 610.98H762.765C763.931 610.98 764.655 610.677 764.935 610.07C765.261 609.417 765.425 608.553 765.425 607.48C765.425 606.407 765.238 605.543 764.865 604.89C764.538 604.237 763.838 603.91 762.765 603.91H745.545C742.278 603.91 739.921 603.303 738.475 602.09C737.028 600.83 736.305 598.963 736.305 596.49V593.69C736.305 593.037 736.375 592.267 736.515 591.38C736.655 590.493 737.005 589.607 737.565 588.72C738.125 587.833 739.035 587.11 740.295 586.55C741.555 585.943 743.305 585.64 745.545 585.64H764.865C767.665 585.64 769.648 585.803 770.815 586.13C771.981 586.457 772.565 586.783 772.565 587.11L771.865 592.36C770.511 592.22 768.015 592.08 764.375 591.94C760.735 591.753 756.278 591.66 751.005 591.66H747.505C746.338 591.66 745.591 591.987 745.265 592.64C744.985 593.247 744.845 593.97 744.845 594.81C744.845 595.697 744.985 596.443 745.265 597.05C745.591 597.61 746.338 597.89 747.505 597.89H764.725C767.898 597.89 770.231 598.543 771.725 599.85C773.218 601.157 773.965 602.813 773.965 604.82V608.95C773.965 609.79 773.895 610.677 773.755 611.61C773.661 612.543 773.335 613.43 772.775 614.27C772.215 615.063 771.305 615.717 770.045 616.23C768.785 616.743 767.011 617 764.725 617H744.915ZM786.613 581.23C784.887 581.23 783.627 580.88 782.833 580.18C782.04 579.48 781.643 578.313 781.643 576.68C781.643 575 782.017 573.833 782.763 573.18C783.557 572.48 784.84 572.13 786.613 572.13C788.387 572.13 789.67 572.48 790.463 573.18C791.257 573.833 791.653 575 791.653 576.68C791.653 578.267 791.257 579.433 790.463 580.18C789.67 580.88 788.387 581.23 786.613 581.23ZM782.343 617V585.64H790.883V617H782.343ZM823.062 629.32C817.929 629.32 813.752 629.273 810.532 629.18C807.312 629.087 804.839 628.947 803.112 628.76C801.385 628.573 800.195 628.34 799.542 628.06C798.935 627.78 798.632 627.477 798.632 627.15L800.732 621.9C801.479 622.133 802.785 622.413 804.652 622.74C806.565 623.113 808.992 623.3 811.932 623.3H823.902C825.629 623.3 826.842 623.043 827.542 622.53C828.289 622.017 828.662 621.107 828.662 619.8V615.6C826.655 615.973 824.275 616.3 821.522 616.58C818.815 616.86 815.689 617 812.142 617H808.642C806.309 617 804.512 616.697 803.252 616.09C801.992 615.483 801.082 614.713 800.522 613.78C800.009 612.847 799.682 611.867 799.542 610.84C799.449 609.813 799.402 608.88 799.402 608.04V594.6C799.402 593.9 799.449 593.06 799.542 592.08C799.682 591.053 800.009 590.05 800.522 589.07C801.082 588.09 801.992 587.273 803.252 586.62C804.559 585.967 806.355 585.64 808.642 585.64H812.212C817.112 585.64 820.915 585.733 823.622 585.92C826.375 586.107 828.382 586.317 829.642 586.55L831.462 585.64H837.202V620.36C837.202 621.2 837.062 622.133 836.782 623.16C836.549 624.187 836.059 625.167 835.312 626.1C834.565 627.033 833.492 627.803 832.092 628.41C830.692 629.017 828.849 629.32 826.562 629.32H823.062ZM811.302 610.98H826.492C827.565 610.98 828.195 610.887 828.382 610.7C828.569 610.513 828.662 609.907 828.662 608.88V592.15C827.075 592.057 825.069 591.963 822.642 591.87C820.215 591.73 817.625 591.66 814.872 591.66H811.302C809.062 591.66 807.942 592.593 807.942 594.46V608.18C807.895 610.047 809.015 610.98 811.302 610.98ZM845.628 617V585.64H851.368L854.168 587.04C856.128 586.667 858.484 586.34 861.238 586.06C863.991 585.78 867.141 585.64 870.688 585.64H874.188C876.521 585.64 878.318 585.967 879.578 586.62C880.838 587.273 881.724 588.09 882.238 589.07C882.798 590.05 883.124 591.053 883.218 592.08C883.358 593.06 883.428 593.9 883.428 594.6V617H874.888V594.46C874.888 592.593 873.768 591.66 871.528 591.66H856.268C855.381 591.66 854.798 591.753 854.518 591.94C854.284 592.08 854.168 592.5 854.168 593.2V617H845.628ZM900.037 617C897.704 617 895.907 616.697 894.647 616.09C893.387 615.483 892.477 614.713 891.917 613.78C891.404 612.847 891.077 611.867 890.937 610.84C890.844 609.813 890.797 608.88 890.797 608.04V594.6C890.797 593.9 890.844 593.06 890.937 592.08C891.077 591.053 891.404 590.05 891.917 589.07C892.477 588.09 893.387 587.273 894.647 586.62C895.954 585.967 897.75 585.64 900.037 585.64H915.087C918.167 585.64 920.57 585.943 922.297 586.55C924.07 587.11 925.307 588.043 926.007 589.35C926.754 590.657 927.127 592.407 927.127 594.6V604.96H914.877C910.677 604.96 907.247 604.867 904.587 604.68C901.974 604.493 900.224 604.377 899.337 604.33V608.18C899.29 610.047 900.41 610.98 902.697 610.98H906.267C908.787 610.98 911.237 610.957 913.617 610.91C916.044 610.817 918.26 610.723 920.267 610.63C922.274 610.49 923.884 610.373 925.097 610.28L927.897 614.83C927.897 616.277 923.3 617 914.107 617H900.037ZM899.337 598.94H918.587V594.46C918.587 593.527 918.47 592.873 918.237 592.5C918.05 592.127 917.444 591.893 916.417 591.8C915.39 591.707 913.64 591.66 911.167 591.66H902.697C900.457 591.66 899.337 592.593 899.337 594.46V598.94ZM934.905 617V585.64H940.645L943.305 587.04C944.518 586.387 945.825 585.873 947.225 585.5C948.625 585.127 950.398 584.94 952.545 584.94C955.952 584.94 958.705 585.313 960.805 586.06C962.952 586.807 964.375 587.367 965.075 587.74L962.625 593.83C962.065 593.55 961.132 593.2 959.825 592.78C958.565 592.313 957.072 591.893 955.345 591.52C953.618 591.147 951.728 590.96 949.675 590.96H948.905C946.665 590.96 945.195 591.403 944.495 592.29C943.842 593.177 943.492 594.647 943.445 596.7V617H934.905Z" fill="#4B5DFF"/>
<rect width="10" height="70" transform="translate(687 561)" fill="#4B5DFF"/>
</g>
</g>
<defs>
<filter id="filter0_d_1_60" x="-75" y="681" width="308" height="308" filterUnits="userSpaceOnUse" color-interpolation-filters="sRGB">
<feFlood flood-opacity="0" result="BackgroundImageFix"/>
<feColorMatrix in="SourceAlpha" type="matrix" values="0 0 0 0 0 0 0 0 0 0 0 0 0 0 0 0 0 0 127 0" result="hardAlpha"/>
<feOffset dy="4"/>
<feGaussianBlur stdDeviation="2"/>
<feComposite in2="hardAlpha" operator="out"/>
<feColorMatrix type="matrix" values="0 0 0 0 0 0 0 0 0 0 0 0 0 0 0 0 0 0 0.25 0"/>
<feBlend mode="normal" in2="BackgroundImageFix" result="effect1_dropShadow_1_60"/>
<feBlend mode="normal" in="SourceGraphic" in2="effect1_dropShadow_1_60" result="shape"/>
</filter>
<filter id="filter1_d_1_60" x="1192" y="924" width="158" height="158" filterUnits="userSpaceOnUse" color-interpolation-filters="sRGB">
<feFlood flood-opacity="0" result="BackgroundImageFix"/>
<feColorMatrix in="SourceAlpha" type="matrix" values="0 0 0 0 0 0 0 0 0 0 0 0 0 0 0 0 0 0 127 0" result="hardAlpha"/>
<feOffset dy="4"/>
<feGaussianBlur stdDeviation="2"/>
<feComposite in2="hardAlpha" operator="out"/>
<feColorMatrix type="matrix" values="0 0 0 0 0 0 0 0 0 0 0 0 0 0 0 0 0 0 0.25 0"/>
<feBlend mode="normal" in2="BackgroundImageFix" result="effect1_dropShadow_1_60"/>
<feBlend mode="normal" in="SourceGraphic" in2="effect1_dropShadow_1_60" result="shape"/>
</filter>
<filter id="filter2_d_1_60" x="842" y="-89" width="708" height="708" filterUnits="userSpaceOnUse" color-interpolation-filters="sRGB">
<feFlood flood-opacity="0" result="BackgroundImageFix"/>
<feColorMatrix in="SourceAlpha" type="matrix" values="0 0 0 0 0 0 0 0 0 0 0 0 0 0 0 0 0 0 127 0" result="hardAlpha"/>
<feOffset dy="4"/>
<feGaussianBlur stdDeviation="2"/>
<feComposite in2="hardAlpha" operator="out"/>
<feColorMatrix type="matrix" values="0 0 0 0 0 0 0 0 0 0 0 0 0 0 0 0 0 0 0.25 0"/>
<feBlend mode="normal" in2="BackgroundImageFix" result="effect1_dropShadow_1_60"/>
<feBlend mode="normal" in="SourceGraphic" in2="effect1_dropShadow_1_60" result="shape"/>
</filter>
<clipPath id="clip0_1_60">
<rect width="1440" height="1024" fill="white"/>
</clipPath>
<clipPath id="clip1_1_60">
<rect width="64" height="84" fill="white" transform="translate(633 554)"/>
</clipPath>
</defs>
</svg>
